<?xml version="1.0" encoding="utf-8"?>
<!-- Generator: Adobe Illustrator 13.0.2, SVG Export Plug-In . SVG Version: 6.00 Build 14948)  -->
<!DOCTYPE svg PUBLIC "-//W3C//DTD SVG 1.1//EN" "http://www.w3.org/Graphics/SVG/1.1/DTD/svg11.dtd">
<svg version="1.1" id="Ebene_1" xmlns="http://www.w3.org/2000/svg" xmlns:xlink="http://www.w3.org/1999/xlink" x="0px" y="0px"
	 width="1024px" height="768px" viewBox="0 0 1024 768" enable-background="new 0 0 1024 768" xml:space="preserve">
<rect x="64.5" y="41.5" fill="#CCCCCC" stroke="#1A171B" width="903" height="138"/>
<rect x="64.5" y="654.5" fill="#CCCCCC" stroke="#1A171B" width="903" height="77"/>
<rect x="63.5" y="191.5" fill="#CCCCCC" stroke="#1A171B" width="596" height="452"/>
<rect x="677.5" y="190.5" fill="#CCCCCC" stroke="#1A171B" width="290" height="452"/>
<g>
	<path d="M81.692,61.9h7.488v12.576h0.24c0.992-1.12,2.144-1.992,3.456-2.616c1.312-0.624,2.944-0.936,4.896-0.936
		c1.536,0,2.872,0.161,4.008,0.48c1.136,0.32,2.064,0.881,2.784,1.68c0.72,0.8,1.255,1.896,1.608,3.288
		c0.352,1.392,0.528,3.161,0.528,5.304V95.5h-3.792V82.396c0-1.375-0.081-2.576-0.239-3.6c-0.16-1.023-0.471-1.879-0.933-2.568
		c-0.462-0.688-1.092-1.208-1.889-1.56c-0.797-0.352-1.817-0.528-3.061-0.528c-0.861,0-1.706,0.152-2.536,0.456
		c-0.83,0.304-1.586,0.72-2.272,1.248c-0.685,0.528-1.275,1.168-1.77,1.92c-0.494,0.752-0.837,1.576-1.028,2.472V95.5h-3.696V65.116
		h-3.792V61.9z"/>
	<path d="M135.692,92.476c-0.576,0.512-1.256,0.992-2.04,1.44c-0.785,0.448-1.64,0.833-2.568,1.152
		c-0.929,0.32-1.896,0.568-2.904,0.744c-1.008,0.175-2.024,0.264-3.048,0.264c-1.92,0-3.617-0.296-5.088-0.888
		c-1.472-0.592-2.705-1.44-3.696-2.544c-0.992-1.104-1.744-2.424-2.256-3.96c-0.512-1.536-0.768-3.264-0.768-5.184
		c0-2.016,0.28-3.808,0.84-5.376c0.56-1.567,1.368-2.88,2.424-3.936s2.335-1.864,3.84-2.424c1.504-0.56,3.184-0.84,5.04-0.84
		c1.344,0,2.671,0.176,3.984,0.528c1.312,0.353,2.472,1.016,3.48,1.992c1.008,0.977,1.784,2.321,2.328,4.032
		c0.544,1.712,0.736,3.928,0.576,6.648h-18.528c0,2.88,0.774,5.033,2.322,6.456c1.548,1.424,3.614,2.136,6.199,2.136
		c0.862,0,1.715-0.104,2.562-0.312c0.846-0.208,1.651-0.456,2.418-0.744c0.766-0.288,1.444-0.607,2.035-0.96
		c0.59-0.352,1.045-0.672,1.364-0.96L135.692,92.476z M125.585,74.092c-1.053,0-2.05,0.113-2.99,0.336
		c-0.941,0.224-1.771,0.6-2.488,1.128c-0.718,0.528-1.308,1.216-1.77,2.064c-0.463,0.848-0.758,1.896-0.885,3.144h14.88
		c-0.16-2.112-0.838-3.751-2.034-4.92C129.102,74.676,127.531,74.092,125.585,74.092z"/>
	<path d="M144.283,73.372c1.375-0.8,2.928-1.375,4.656-1.728c1.728-0.352,3.424-0.528,5.088-0.528c1.632,0,2.967,0.256,4.008,0.768
		c1.04,0.513,1.855,1.176,2.448,1.992c0.592,0.816,0.992,1.745,1.2,2.784c0.208,1.04,0.312,2.088,0.312,3.144
		c0,1.216-0.032,2.512-0.096,3.888c-0.064,1.376-0.112,2.752-0.144,4.128c0,1.601,0.096,3.12,0.288,4.56h3.216v3.12h-6.339
		l-0.429-3.6h-0.241c-0.193,0.288-0.481,0.656-0.867,1.104c-0.385,0.449-0.891,0.888-1.517,1.32
		c-0.625,0.432-1.388,0.808-2.287,1.128c-0.898,0.319-1.958,0.48-3.178,0.48c-2.375,0-4.253-0.607-5.633-1.824
		c-1.38-1.216-2.07-2.88-2.07-4.992c0-1.632,0.361-2.992,1.083-4.08c0.722-1.087,1.757-1.92,3.105-2.496
		c1.349-0.576,2.978-0.912,4.887-1.008c1.91-0.096,4.052,0.032,6.428,0.384c0.16-1.472,0.184-2.695,0.072-3.672
		c-0.112-0.976-0.369-1.752-0.77-2.328c-0.402-0.576-0.964-0.984-1.686-1.224c-0.723-0.24-1.614-0.36-2.673-0.36
		c-1.445,0-2.826,0.2-4.143,0.6c-1.317,0.4-2.488,0.809-3.516,1.224L144.283,73.372z M151.387,92.716
		c0.896,0,1.728-0.144,2.496-0.432c0.768-0.288,1.44-0.656,2.016-1.104c0.576-0.448,1.056-0.936,1.44-1.464
		c0.384-0.528,0.672-1.032,0.864-1.512v-3.36c-1.664-0.288-3.2-0.432-4.608-0.432c-1.409,0-2.625,0.152-3.648,0.456
		c-1.024,0.304-1.824,0.776-2.4,1.416c-0.576,0.64-0.864,1.472-0.864,2.496c0,1.056,0.36,1.977,1.08,2.76
		C148.483,92.325,149.69,92.716,151.387,92.716z"/>
	<path d="M184.603,61.9h7.824v25.392c0,0.288,0.016,0.648,0.048,1.08c0.031,0.432,0.072,0.888,0.12,1.368
		c0.048,0.48,0.104,0.952,0.168,1.416c0.064,0.464,0.128,0.873,0.192,1.224h3.216v3.12h-6.429l-0.483-3.696h-0.191
		c-0.703,1.216-1.749,2.232-3.137,3.048s-2.992,1.224-4.811,1.224c-3.608,0-6.265-1.016-7.972-3.048
		c-1.708-2.032-2.561-5.191-2.561-9.48c0-2.016,0.287-3.799,0.862-5.352c0.574-1.552,1.396-2.848,2.465-3.888
		c1.069-1.04,2.354-1.832,3.854-2.376c1.5-0.544,3.176-0.816,5.026-0.816c0.67,0,1.269,0.016,1.795,0.048
		c0.526,0.032,1.013,0.08,1.46,0.144c0.447,0.064,0.87,0.152,1.269,0.264c0.399,0.113,0.837,0.233,1.316,0.36v-6.816h-4.032V61.9z
		 M181.746,92.86c1.946,0,3.477-0.504,4.592-1.512c1.116-1.008,1.882-2.52,2.296-4.536V75.676c-0.702-0.48-1.491-0.832-2.368-1.056
		c-0.877-0.224-2.033-0.336-3.468-0.336c-2.552,0-4.561,0.744-6.028,2.232c-1.467,1.488-2.201,3.833-2.201,7.032
		c0,1.312,0.119,2.537,0.358,3.672c0.239,1.136,0.639,2.12,1.196,2.952c0.558,0.833,1.299,1.488,2.224,1.968
		S180.406,92.86,181.746,92.86z"/>
	<path d="M222.09,92.476c-0.576,0.512-1.256,0.992-2.04,1.44c-0.785,0.448-1.64,0.833-2.568,1.152
		c-0.929,0.32-1.896,0.568-2.904,0.744c-1.008,0.175-2.024,0.264-3.048,0.264c-1.92,0-3.617-0.296-5.088-0.888
		c-1.472-0.592-2.705-1.44-3.696-2.544c-0.992-1.104-1.744-2.424-2.256-3.96c-0.512-1.536-0.768-3.264-0.768-5.184
		c0-2.016,0.28-3.808,0.84-5.376c0.56-1.567,1.368-2.88,2.424-3.936s2.335-1.864,3.84-2.424c1.504-0.56,3.184-0.84,5.04-0.84
		c1.344,0,2.671,0.176,3.984,0.528c1.312,0.353,2.472,1.016,3.48,1.992c1.008,0.977,1.784,2.321,2.328,4.032
		c0.544,1.712,0.736,3.928,0.576,6.648h-18.528c0,2.88,0.774,5.033,2.322,6.456c1.548,1.424,3.614,2.136,6.199,2.136
		c0.862,0,1.715-0.104,2.562-0.312c0.846-0.208,1.651-0.456,2.418-0.744c0.766-0.288,1.444-0.607,2.035-0.96
		c0.59-0.352,1.045-0.672,1.364-0.96L222.09,92.476z M211.984,74.092c-1.053,0-2.05,0.113-2.99,0.336
		c-0.941,0.224-1.771,0.6-2.488,1.128c-0.718,0.528-1.308,1.216-1.77,2.064c-0.463,0.848-0.758,1.896-0.885,3.144h14.88
		c-0.16-2.112-0.838-3.751-2.034-4.92C215.5,74.676,213.93,74.092,211.984,74.092z"/>
	<path d="M228.666,95.5v-3.216h6.48V74.716h-6.48V71.5h8.976l0.768,3.12h0.24c1.087-0.992,2.304-1.84,3.648-2.544
		c1.344-0.704,2.944-1.056,4.8-1.056c1.087,0,1.959,0.208,2.616,0.624c0.656,0.416,1.168,1.024,1.536,1.824
		c0.368,0.8,0.616,1.769,0.744,2.904c0.127,1.136,0.192,2.424,0.192,3.864l-3.36,0.048c0-2.031-0.2-3.523-0.6-4.476
		c-0.4-0.952-1.128-1.429-2.184-1.429c-0.992,0-1.889,0.144-2.688,0.431c-0.8,0.288-1.496,0.639-2.088,1.053
		c-0.593,0.415-1.097,0.83-1.512,1.244c-0.416,0.416-0.72,0.767-0.912,1.053v14.123h9.216V95.5H228.666z"/>
</g>
<g>
	<path d="M102.476,238.02c0-1.024-0.399-1.816-1.196-2.376c-0.798-0.56-1.787-1.008-2.967-1.344
		c-1.181-0.336-2.465-0.648-3.853-0.936c-1.388-0.288-2.672-0.672-3.853-1.152c-1.181-0.48-2.17-1.128-2.967-1.944
		c-0.798-0.816-1.196-1.96-1.196-3.432c0-1.216,0.264-2.256,0.792-3.12c0.528-0.864,1.224-1.576,2.088-2.136
		c0.864-0.56,1.872-0.976,3.024-1.248c1.152-0.271,2.352-0.408,3.6-0.408c2.239,0,4.167,0.281,5.784,0.84
		c1.616,0.56,2.904,1.145,3.864,1.752l-1.532,3.024c-1.053-0.576-2.193-1.128-3.421-1.656c-1.229-0.528-2.768-0.792-4.617-0.792
		c-0.702,0-1.396,0.072-2.082,0.216s-1.308,0.36-1.866,0.648s-1.005,0.665-1.34,1.128c-0.335,0.464-0.502,1.032-0.502,1.704
		c0,0.833,0.398,1.472,1.196,1.92c0.797,0.449,1.787,0.824,2.967,1.128c1.18,0.305,2.464,0.593,3.853,0.864
		c1.388,0.272,2.672,0.664,3.853,1.176c1.18,0.512,2.169,1.2,2.967,2.064c0.797,0.864,1.196,2.033,1.196,3.504
		c0,2.208-0.873,4.032-2.616,5.472c-1.744,1.44-4.36,2.16-7.848,2.16c-1.056,0-2.097-0.096-3.12-0.288
		c-1.024-0.192-1.984-0.448-2.88-0.768c-0.896-0.319-1.712-0.68-2.448-1.08c-0.736-0.4-1.344-0.808-1.824-1.224l1.915-3.12
		c0.382,0.384,0.893,0.776,1.531,1.176c0.638,0.4,1.34,0.761,2.106,1.08c0.766,0.32,1.587,0.576,2.465,0.768
		s1.763,0.288,2.657,0.288c0.861,0,1.667-0.072,2.417-0.216s1.412-0.367,1.987-0.672c0.574-0.304,1.029-0.704,1.364-1.2
		C102.308,239.324,102.476,238.724,102.476,238.02z"/>
	<path d="M135.692,241.476c-0.576,0.512-1.256,0.992-2.04,1.44c-0.785,0.448-1.64,0.833-2.568,1.152
		c-0.929,0.32-1.896,0.568-2.904,0.744c-1.008,0.175-2.024,0.264-3.048,0.264c-1.92,0-3.617-0.296-5.088-0.888
		c-1.472-0.592-2.705-1.44-3.696-2.544c-0.992-1.104-1.744-2.424-2.256-3.96c-0.512-1.536-0.768-3.264-0.768-5.184
		c0-2.016,0.28-3.808,0.84-5.376c0.56-1.567,1.368-2.88,2.424-3.936s2.335-1.864,3.84-2.424c1.504-0.56,3.184-0.84,5.04-0.84
		c1.344,0,2.671,0.176,3.984,0.528c1.312,0.353,2.472,1.016,3.48,1.992c1.008,0.977,1.784,2.321,2.328,4.032
		c0.544,1.712,0.736,3.928,0.576,6.648h-18.528c0,2.88,0.774,5.033,2.322,6.456c1.548,1.424,3.614,2.136,6.199,2.136
		c0.862,0,1.715-0.104,2.562-0.312c0.846-0.208,1.651-0.456,2.418-0.744c0.766-0.288,1.444-0.607,2.035-0.96
		c0.59-0.352,1.045-0.672,1.364-0.96L135.692,241.476z M125.585,223.092c-1.053,0-2.05,0.113-2.99,0.336
		c-0.941,0.224-1.771,0.6-2.488,1.128c-0.718,0.528-1.308,1.216-1.77,2.064c-0.463,0.848-0.758,1.896-0.885,3.144h14.88
		c-0.16-2.112-0.838-3.751-2.034-4.92C129.102,223.676,127.531,223.092,125.585,223.092z"/>
	<path d="M160.171,224.196c-0.736-0.255-1.528-0.472-2.376-0.648c-0.848-0.175-1.688-0.264-2.52-0.264
		c-3.136,0-5.472,0.738-7.008,2.214s-2.304,3.818-2.304,7.026c0,1.412,0.224,2.671,0.672,3.779c0.448,1.107,1.087,2.046,1.92,2.815
		c0.832,0.77,1.832,1.363,3,1.78c1.167,0.417,2.456,0.625,3.864,0.625c1.504,0,2.968-0.26,4.392-0.781
		c1.424-0.521,2.616-1.205,3.576-2.051l1.68,2.784c-0.448,0.384-1.008,0.785-1.68,1.2c-0.672,0.417-1.448,0.809-2.328,1.176
		c-0.88,0.368-1.856,0.664-2.928,0.888c-1.073,0.223-2.232,0.336-3.48,0.336c-2.08,0-3.912-0.296-5.496-0.888
		s-2.904-1.44-3.96-2.544c-1.056-1.104-1.856-2.432-2.4-3.984c-0.544-1.552-0.816-3.271-0.816-5.16c0-2.016,0.28-3.808,0.84-5.376
		c0.559-1.567,1.368-2.88,2.424-3.936s2.335-1.864,3.84-2.424c1.504-0.56,3.184-0.84,5.04-0.84c2.368,0,4.296,0.208,5.784,0.624
		c1.488,0.417,2.743,0.881,3.768,1.392l-0.048,0.144v6.672h-3.456V224.196z"/>
	<path d="M169.386,220.5h5.712v-4.752l3.792-1.056v5.808h12.816v3.216h-12.816v11.328c0,2.336,0.565,4.064,1.698,5.184
		c1.132,1.121,2.751,1.68,4.856,1.68c1.435,0,2.687-0.271,3.755-0.816c1.068-0.543,2.034-1.135,2.895-1.776l1.244,2.832
		c-1.121,0.896-2.456,1.616-4.008,2.16c-1.553,0.543-3.144,0.816-4.776,0.816c-1.28,0-2.488-0.185-3.624-0.552
		c-1.137-0.367-2.136-0.936-3-1.704c-0.864-0.768-1.553-1.752-2.064-2.952c-0.512-1.2-0.768-2.632-0.768-4.296v-11.904h-5.712V220.5
		z"/>
	<path d="M201.738,244.5v-3.216h8.352v-17.568h-8.352V220.5h12.144v20.784h8.16v3.216H201.738z M208.746,213.684
		c0-0.864,0.288-1.608,0.864-2.232c0.576-0.624,1.312-0.936,2.208-0.936c0.928,0,1.704,0.312,2.328,0.936
		c0.624,0.624,0.936,1.368,0.936,2.232c0,0.833-0.312,1.536-0.936,2.112c-0.624,0.576-1.4,0.864-2.328,0.864
		c-0.896,0-1.632-0.288-2.208-0.864C209.034,215.22,208.746,214.517,208.746,213.684z"/>
	<path d="M228.234,232.5c0-3.872,1.008-6.936,3.024-9.192c2.016-2.256,4.896-3.384,8.64-3.384c2.016,0,3.751,0.329,5.208,0.984
		c1.456,0.656,2.664,1.544,3.624,2.664c0.96,1.121,1.672,2.448,2.136,3.984c0.463,1.536,0.696,3.185,0.696,4.944
		c0,1.92-0.256,3.656-0.768,5.208c-0.512,1.553-1.264,2.873-2.256,3.96c-0.992,1.088-2.216,1.928-3.672,2.52
		c-1.457,0.592-3.113,0.888-4.968,0.888c-1.984,0-3.712-0.329-5.184-0.984c-1.472-0.655-2.688-1.543-3.648-2.664
		s-1.672-2.448-2.136-3.984C228.466,235.908,228.234,234.26,228.234,232.5z M232.218,232.5c0,1.121,0.135,2.24,0.406,3.36
		c0.271,1.121,0.71,2.128,1.316,3.024c0.606,0.896,1.395,1.617,2.368,2.16c0.973,0.544,2.161,0.816,3.565,0.816
		c2.552,0,4.474-0.792,5.766-2.376c1.292-1.584,1.938-3.912,1.938-6.984c0-1.152-0.136-2.28-0.407-3.384s-0.718-2.104-1.34-3
		c-0.622-0.896-1.419-1.616-2.392-2.16c-0.974-0.544-2.162-0.816-3.565-0.816c-2.552,0-4.466,0.784-5.742,2.352
		C232.855,227.06,232.218,229.396,232.218,232.5z"/>
	<path d="M258.761,228.9c0-0.288-0.008-0.664-0.024-1.128c-0.017-0.463-0.041-0.943-0.072-1.44c-0.032-0.496-0.072-0.984-0.12-1.464
		s-0.104-0.896-0.168-1.248h-3.216v-3.12h6.432l0.432,3.888h0.24c0.32-0.544,0.744-1.08,1.272-1.608
		c0.528-0.528,1.144-1.008,1.848-1.44c0.704-0.432,1.488-0.775,2.352-1.032c0.864-0.256,1.776-0.384,2.736-0.384
		c1.472,0,2.776,0.161,3.912,0.48c1.136,0.32,2.08,0.888,2.832,1.704c0.751,0.816,1.32,1.92,1.704,3.312s0.576,3.161,0.576,5.304
		V244.5h-3.792v-13.026c0-2.65-0.431-4.646-1.292-5.987c-0.861-1.341-2.423-2.011-4.687-2.011c-0.83,0-1.634,0.168-2.416,0.503
		c-0.782,0.335-1.491,0.774-2.128,1.317c-0.638,0.543-1.196,1.173-1.674,1.892c-0.479,0.718-0.829,1.477-1.051,2.274V244.5h-3.696
		V228.9z"/>
</g>
<g>
	<path d="M701.684,222.372c1.376-0.8,2.928-1.375,4.656-1.728c1.729-0.352,3.424-0.528,5.088-0.528c1.633,0,2.968,0.256,4.008,0.768
		c1.04,0.513,1.855,1.176,2.448,1.992c0.592,0.816,0.991,1.745,1.2,2.784c0.208,1.04,0.312,2.088,0.312,3.144
		c0,1.216-0.033,2.512-0.097,3.888c-0.064,1.376-0.112,2.752-0.144,4.128c0,1.601,0.096,3.12,0.287,4.56h3.217v3.12h-6.34
		l-0.428-3.6h-0.241c-0.192,0.288-0.481,0.656-0.867,1.104c-0.386,0.449-0.892,0.888-1.517,1.32
		c-0.625,0.432-1.389,0.808-2.287,1.128c-0.898,0.319-1.957,0.48-3.178,0.48c-2.375,0-4.253-0.607-5.633-1.824
		c-1.38-1.216-2.07-2.88-2.07-4.992c0-1.632,0.361-2.992,1.084-4.08c0.722-1.087,1.757-1.92,3.105-2.496
		c1.348-0.576,2.977-0.912,4.887-1.008c1.91-0.096,4.053,0.032,6.428,0.384c0.16-1.472,0.184-2.695,0.072-3.672
		c-0.112-0.976-0.369-1.752-0.77-2.328c-0.402-0.576-0.965-0.984-1.687-1.224c-0.724-0.24-1.614-0.36-2.673-0.36
		c-1.445,0-2.826,0.2-4.143,0.6c-1.316,0.4-2.488,0.809-3.516,1.224L701.684,222.372z M708.788,241.716
		c0.896,0,1.728-0.144,2.496-0.432c0.768-0.288,1.44-0.656,2.016-1.104c0.576-0.448,1.056-0.936,1.44-1.464
		c0.384-0.528,0.672-1.032,0.863-1.512v-3.36c-1.664-0.288-3.199-0.432-4.607-0.432s-2.625,0.152-3.648,0.456
		c-1.023,0.304-1.824,0.776-2.399,1.416c-0.576,0.64-0.864,1.472-0.864,2.496c0,1.056,0.359,1.977,1.08,2.76
		C705.884,241.325,707.092,241.716,708.788,241.716z"/>
	<path d="M746.275,238.02c0-1.024-0.398-1.816-1.195-2.376c-0.799-0.56-1.787-1.008-2.967-1.344
		c-1.182-0.336-2.466-0.648-3.854-0.936c-1.389-0.288-2.672-0.672-3.853-1.152s-2.17-1.128-2.968-1.944
		c-0.797-0.816-1.195-1.96-1.195-3.432c0-1.216,0.264-2.256,0.791-3.12c0.529-0.864,1.225-1.576,2.089-2.136
		c0.864-0.56,1.872-0.976,3.024-1.248c1.151-0.271,2.352-0.408,3.6-0.408c2.239,0,4.168,0.281,5.783,0.84
		c1.616,0.56,2.904,1.145,3.865,1.752l-1.532,3.024c-1.053-0.576-2.192-1.128-3.421-1.656c-1.229-0.528-2.768-0.792-4.617-0.792
		c-0.702,0-1.396,0.072-2.082,0.216s-1.309,0.36-1.866,0.648s-1.005,0.665-1.34,1.128c-0.335,0.464-0.503,1.032-0.503,1.704
		c0,0.833,0.398,1.472,1.197,1.92c0.797,0.449,1.786,0.824,2.967,1.128c1.18,0.305,2.465,0.593,3.853,0.864
		c1.388,0.272,2.673,0.664,3.853,1.176c1.181,0.512,2.17,1.2,2.967,2.064c0.798,0.864,1.197,2.033,1.197,3.504
		c0,2.208-0.873,4.032-2.617,5.472s-4.359,2.16-7.848,2.16c-1.056,0-2.096-0.096-3.119-0.288c-1.025-0.192-1.984-0.448-2.881-0.768
		c-0.896-0.319-1.712-0.68-2.447-1.08c-0.736-0.4-1.344-0.808-1.824-1.224l1.914-3.12c0.383,0.384,0.894,0.776,1.531,1.176
		c0.639,0.4,1.34,0.761,2.107,1.08c0.766,0.32,1.587,0.576,2.465,0.768c0.877,0.192,1.762,0.288,2.656,0.288
		c0.861,0,1.666-0.072,2.416-0.216s1.412-0.367,1.987-0.672c0.574-0.304,1.028-0.704,1.364-1.2
		C746.107,239.324,746.275,238.724,746.275,238.02z"/>
	<path d="M759.139,244.5v-3.216h8.353v-17.568h-8.353V220.5h12.145v20.784h8.16v3.216H759.139z M766.146,213.684
		c0-0.864,0.289-1.608,0.865-2.232c0.575-0.624,1.311-0.936,2.207-0.936c0.928,0,1.705,0.312,2.328,0.936
		c0.624,0.624,0.936,1.368,0.936,2.232c0,0.833-0.312,1.536-0.936,2.112c-0.623,0.576-1.4,0.864-2.328,0.864
		c-0.896,0-1.632-0.288-2.207-0.864C766.436,215.22,766.146,214.517,766.146,213.684z"/>
	<path d="M799.603,210.9h7.823v25.392c0,0.288,0.017,0.648,0.049,1.08c0.031,0.432,0.072,0.888,0.119,1.368
		c0.049,0.48,0.104,0.952,0.168,1.416c0.064,0.464,0.129,0.873,0.193,1.224h3.215v3.12h-6.429l-0.483-3.696h-0.19
		c-0.703,1.216-1.749,2.232-3.137,3.048s-2.991,1.224-4.812,1.224c-3.607,0-6.265-1.016-7.972-3.048
		c-1.708-2.032-2.562-5.191-2.562-9.48c0-2.016,0.287-3.799,0.862-5.352c0.574-1.552,1.396-2.848,2.466-3.888
		c1.068-1.04,2.354-1.832,3.854-2.376c1.5-0.544,3.176-0.816,5.026-0.816c0.67,0,1.269,0.016,1.795,0.048
		c0.526,0.032,1.013,0.08,1.46,0.144c0.447,0.064,0.87,0.152,1.27,0.264c0.398,0.113,0.838,0.233,1.316,0.36v-6.816h-4.032V210.9z
		 M796.746,241.86c1.945,0,3.477-0.504,4.592-1.512c1.116-1.008,1.882-2.52,2.297-4.536v-11.136
		c-0.702-0.48-1.491-0.832-2.368-1.056c-0.878-0.224-2.033-0.336-3.468-0.336c-2.552,0-4.561,0.744-6.027,2.232
		c-1.468,1.488-2.201,3.833-2.201,7.032c0,1.312,0.119,2.537,0.358,3.672c0.239,1.136,0.639,2.12,1.196,2.952
		c0.559,0.833,1.299,1.488,2.225,1.968C794.273,241.62,795.406,241.86,796.746,241.86z"/>
	<path d="M837.09,241.476c-0.576,0.512-1.256,0.992-2.039,1.44c-0.785,0.448-1.641,0.833-2.568,1.152
		c-0.929,0.32-1.896,0.568-2.904,0.744c-1.008,0.175-2.023,0.264-3.048,0.264c-1.92,0-3.616-0.296-5.088-0.888
		s-2.704-1.44-3.696-2.544s-1.744-2.424-2.256-3.96s-0.768-3.264-0.768-5.184c0-2.016,0.279-3.808,0.84-5.376
		c0.559-1.567,1.367-2.88,2.424-3.936s2.336-1.864,3.84-2.424c1.504-0.56,3.184-0.84,5.04-0.84c1.345,0,2.671,0.176,3.983,0.528
		c1.312,0.353,2.473,1.016,3.48,1.992c1.008,0.977,1.783,2.321,2.328,4.032c0.544,1.712,0.736,3.928,0.576,6.648h-18.528
		c0,2.88,0.774,5.033,2.322,6.456c1.548,1.424,3.614,2.136,6.199,2.136c0.862,0,1.716-0.104,2.562-0.312
		c0.846-0.208,1.651-0.456,2.418-0.744c0.766-0.288,1.443-0.607,2.035-0.96c0.59-0.352,1.045-0.672,1.363-0.96L837.09,241.476z
		 M826.984,223.092c-1.053,0-2.051,0.113-2.99,0.336c-0.941,0.224-1.771,0.6-2.488,1.128c-0.719,0.528-1.309,1.216-1.771,2.064
		c-0.463,0.848-0.758,1.896-0.886,3.144h14.881c-0.16-2.112-0.838-3.751-2.034-4.92C830.5,223.676,828.93,223.092,826.984,223.092z"
		/>
</g>
<g>
	<path d="M87.724,710.5v-3.216h5.712v-17.568h-5.712V686.5h5.712v-1.344c0-3.008,0.784-5.184,2.352-6.528
		c1.567-1.344,3.808-2.017,6.72-2.017c1.056,0,2,0.064,2.832,0.193c0.832,0.127,1.728,0.383,2.688,0.768l-0.86,3.119
		c-0.829-0.352-1.625-0.583-2.39-0.695c-0.765-0.111-1.465-0.168-2.103-0.168c-2.103,0-3.537,0.521-4.301,1.561
		c-0.765,1.039-1.146,2.744-1.146,5.111h9.936v3.216h-9.936v17.568h9.936v3.216H87.724z"/>
	<path d="M115.036,698.5c0-3.871,1.008-6.936,3.024-9.191c2.016-2.257,4.896-3.385,8.64-3.385c2.016,0,3.751,0.328,5.208,0.984
		c1.456,0.656,2.664,1.544,3.624,2.664s1.672,2.447,2.136,3.984c0.463,1.535,0.696,3.184,0.696,4.943
		c0,1.92-0.256,3.656-0.768,5.208c-0.512,1.553-1.264,2.872-2.256,3.96c-0.992,1.088-2.216,1.928-3.672,2.52
		c-1.457,0.592-3.113,0.889-4.968,0.889c-1.984,0-3.712-0.328-5.184-0.984c-1.472-0.655-2.688-1.543-3.648-2.664
		c-0.96-1.119-1.672-2.447-2.136-3.984C115.268,701.908,115.036,700.26,115.036,698.5z M119.02,698.5
		c0,1.121,0.135,2.24,0.406,3.359c0.271,1.121,0.71,2.129,1.316,3.024c0.606,0.896,1.395,1.616,2.368,2.16s2.161,0.815,3.565,0.815
		c2.552,0,4.474-0.791,5.766-2.375c1.292-1.584,1.938-3.912,1.938-6.984c0-1.152-0.136-2.279-0.407-3.384s-0.718-2.104-1.34-3
		s-1.419-1.616-2.392-2.16c-0.974-0.544-2.162-0.815-3.565-0.815c-2.552,0-4.466,0.783-5.742,2.352
		C119.657,693.061,119.02,695.396,119.02,698.5z"/>
	<path d="M143.835,698.5c0-3.871,1.008-6.936,3.024-9.191c2.016-2.257,4.896-3.385,8.64-3.385c2.016,0,3.751,0.328,5.208,0.984
		c1.456,0.656,2.664,1.544,3.624,2.664s1.672,2.447,2.136,3.984c0.463,1.535,0.696,3.184,0.696,4.943
		c0,1.92-0.256,3.656-0.768,5.208c-0.512,1.553-1.264,2.872-2.256,3.96c-0.992,1.088-2.216,1.928-3.672,2.52
		c-1.457,0.592-3.113,0.889-4.968,0.889c-1.984,0-3.712-0.328-5.184-0.984c-1.472-0.655-2.688-1.543-3.648-2.664
		c-0.96-1.119-1.672-2.447-2.136-3.984C144.067,701.908,143.835,700.26,143.835,698.5z M147.819,698.5
		c0,1.121,0.135,2.24,0.406,3.359c0.271,1.121,0.71,2.129,1.316,3.024c0.606,0.896,1.395,1.616,2.368,2.16s2.161,0.815,3.565,0.815
		c2.552,0,4.474-0.791,5.766-2.375c1.292-1.584,1.938-3.912,1.938-6.984c0-1.152-0.136-2.279-0.407-3.384s-0.718-2.104-1.34-3
		s-1.419-1.616-2.392-2.16c-0.974-0.544-2.162-0.815-3.565-0.815c-2.552,0-4.466,0.783-5.742,2.352
		C148.457,693.061,147.819,695.396,147.819,698.5z"/>
	<path d="M171.386,686.5h5.712v-4.752l3.792-1.057v5.809h12.816v3.216h-12.816v11.328c0,2.337,0.565,4.064,1.698,5.185
		s2.751,1.68,4.856,1.68c1.435,0,2.687-0.271,3.755-0.816c1.068-0.543,2.034-1.135,2.895-1.775l1.244,2.832
		c-1.121,0.896-2.456,1.615-4.008,2.16c-1.553,0.543-3.144,0.815-4.776,0.815c-1.28,0-2.488-0.185-3.624-0.552
		c-1.137-0.367-2.136-0.936-3-1.704c-0.864-0.769-1.553-1.752-2.064-2.952c-0.512-1.2-0.768-2.632-0.768-4.296v-11.904h-5.712V686.5
		z"/>
	<path d="M224.09,707.477c-0.576,0.512-1.256,0.992-2.04,1.439c-0.785,0.448-1.64,0.832-2.568,1.152
		c-0.929,0.32-1.896,0.567-2.904,0.744c-1.008,0.175-2.024,0.264-3.048,0.264c-1.92,0-3.617-0.297-5.088-0.889
		c-1.472-0.592-2.705-1.439-3.696-2.543c-0.992-1.104-1.744-2.424-2.256-3.961c-0.512-1.535-0.768-3.264-0.768-5.184
		c0-2.016,0.28-3.808,0.84-5.376c0.56-1.567,1.368-2.88,2.424-3.937c1.056-1.056,2.335-1.863,3.84-2.424
		c1.504-0.559,3.184-0.84,5.04-0.84c1.344,0,2.671,0.176,3.984,0.528c1.312,0.353,2.472,1.017,3.48,1.991
		c1.008,0.977,1.784,2.321,2.328,4.033c0.544,1.712,0.736,3.928,0.576,6.647h-18.528c0,2.88,0.774,5.032,2.322,6.456
		s3.614,2.136,6.199,2.136c0.862,0,1.715-0.104,2.562-0.312c0.846-0.208,1.651-0.456,2.418-0.744
		c0.766-0.288,1.444-0.607,2.035-0.96c0.59-0.353,1.045-0.673,1.364-0.96L224.09,707.477z M213.984,689.092
		c-1.053,0-2.05,0.113-2.99,0.336c-0.941,0.225-1.771,0.6-2.488,1.129c-0.718,0.527-1.308,1.216-1.77,2.063
		c-0.463,0.849-0.758,1.896-0.885,3.144h14.88c-0.16-2.111-0.838-3.751-2.034-4.92C217.5,689.676,215.93,689.092,213.984,689.092z"
		/>
	<path d="M230.666,710.5v-3.216h6.48v-17.568h-6.48V686.5h8.976l0.768,3.12h0.24c1.087-0.991,2.304-1.84,3.648-2.544
		c1.344-0.703,2.944-1.057,4.8-1.057c1.087,0,1.959,0.209,2.616,0.625c0.656,0.416,1.168,1.023,1.536,1.823
		c0.368,0.8,0.616,1.769,0.744,2.904c0.127,1.136,0.192,2.424,0.192,3.864l-3.36,0.048c0-2.031-0.2-3.522-0.6-4.476
		c-0.4-0.952-1.128-1.429-2.184-1.429c-0.992,0-1.889,0.144-2.688,0.431c-0.8,0.288-1.496,0.639-2.088,1.054
		c-0.593,0.415-1.097,0.829-1.512,1.244c-0.416,0.415-0.72,0.767-0.912,1.054v14.122h9.216v3.216H230.666z"/>
</g>
</svg>
