<?xml version="1.0" encoding="UTF-8" standalone="no"?>
<!-- Created with Inkscape (http://www.inkscape.org/) -->
<svg
   xmlns:svg="http://www.w3.org/2000/svg"
   xmlns="http://www.w3.org/2000/svg"
   version="1.0"
   width="340"
   height="340"
   id="svg2">
  <defs
     id="defs4" />
  <g
     id="layer1">
    <g
       transform="translate(340.00005,0)"
       id="g3590">
      <g
         transform="matrix(7.0833333,0,0,7.0833333,-3456.6667,-708.33333)"
         style="stroke:none;stroke-width:0.14117648;stroke-linecap:round;stroke-miterlimit:4;stroke-dasharray:none;stroke-opacity:1"
         id="g3546">
        <path
           d="M 464,100 C 461.84995,100 459.76453,100.2814 457.78125,100.8125 L 459.84375,108.5625 C 461.17314,108.20426 462.55793,108 464,108 C 465.44207,108 466.82686,108.20426 468.15625,108.5625 L 470.21875,100.8125 C 468.23547,100.2814 466.15005,100 464,100 z "
           style="opacity:1;color:#000000;fill:#f4e500;fill-opacity:1;fill-rule:nonzero;stroke:none;stroke-width:0.14117648;stroke-linecap:round;stroke-linejoin:miter;marker:none;marker-start:none;marker-mid:none;marker-end:none;stroke-miterlimit:4;stroke-dasharray:none;stroke-dashoffset:0;stroke-opacity:1;visibility:visible;display:inline;overflow:visible;enable-background:accumulate"
           id="path3548" />
        <path
           d="M 464,148 C 466.15005,148 468.23547,147.7186 470.21875,147.1875 L 468.15625,139.4375 C 466.82686,139.79574 465.44207,140 464,140 C 462.55793,140 461.17314,139.79574 459.84375,139.4375 L 457.78125,147.1875 C 459.76453,147.7186 461.84995,148 464,148 z "
           style="opacity:1;color:#000000;fill:#6d398b;fill-opacity:1;fill-rule:nonzero;stroke:none;stroke-width:0.14117648;stroke-linecap:round;stroke-linejoin:miter;marker:none;marker-start:none;marker-mid:none;marker-end:none;stroke-miterlimit:4;stroke-dasharray:none;stroke-dashoffset:0;stroke-opacity:1;visibility:visible;display:inline;overflow:visible;enable-background:accumulate"
           id="path3550" />
        <path
           d="M 488,124 C 488,121.84995 487.7186,119.76453 487.1875,117.78125 L 479.4375,119.84375 C 479.79574,121.17314 480,122.55793 480,124 C 480,125.44207 479.79574,126.82686 479.4375,128.15625 L 487.1875,130.21875 C 487.7186,128.23547 488,126.15005 488,124 z "
           style="opacity:1;color:#000000;fill:#ea621f;fill-opacity:1;fill-rule:nonzero;stroke:none;stroke-width:0.14117648;stroke-linecap:round;stroke-linejoin:miter;marker:none;marker-start:none;marker-mid:none;marker-end:none;stroke-miterlimit:4;stroke-dasharray:none;stroke-dashoffset:0;stroke-opacity:1;visibility:visible;display:inline;overflow:visible;enable-background:accumulate"
           id="path3552" />
        <path
           d="M 440,124 C 440,126.15005 440.2814,128.23547 440.8125,130.21875 L 448.5625,128.15625 C 448.20426,126.82686 448,125.44207 448,124 C 448,122.55793 448.20426,121.17314 448.5625,119.84375 L 440.8125,117.78125 C 440.2814,119.76453 440,121.84995 440,124 z "
           style="opacity:1;color:#000000;fill:#0696bb;fill-opacity:1;fill-rule:nonzero;stroke:none;stroke-width:0.14117648;stroke-linecap:round;stroke-linejoin:miter;marker:none;marker-start:none;marker-mid:none;marker-end:none;stroke-miterlimit:4;stroke-dasharray:none;stroke-dashoffset:0;stroke-opacity:1;visibility:visible;display:inline;overflow:visible;enable-background:accumulate"
           id="path3554" />
        <path
           d="M 476,103.21539 C 474.138,102.14037 472.19128,101.34136 470.20816,100.80966 L 468.11933,108.5526 C 469.44974,108.90706 470.75113,109.42256 471.99999,110.1436 C 473.24887,110.86463 474.34601,111.73392 475.31817,112.70886 L 480.97935,107.02842 C 479.52733,105.57682 477.862,104.29041 476,103.21539 z "
           style="opacity:1;color:#000000;fill:#fdc60b;fill-opacity:1;fill-rule:nonzero;stroke:none;stroke-width:0.14117648;stroke-linecap:round;stroke-linejoin:miter;marker:none;marker-start:none;marker-mid:none;marker-end:none;stroke-miterlimit:4;stroke-dasharray:none;stroke-dashoffset:0;stroke-opacity:1;visibility:visible;display:inline;overflow:visible;enable-background:accumulate"
           id="path3556" />
        <path
           d="M 452,144.78461 C 453.862,145.85963 455.80872,146.65865 457.79184,147.19034 L 459.88067,139.4474 C 458.55026,139.09294 457.24887,138.57744 456.00001,137.8564 C 454.75113,137.13537 453.65399,136.26608 452.68183,135.29114 L 447.02065,140.97158 C 448.47267,142.42318 450.138,143.70959 452,144.78461 z "
           style="opacity:1;color:#000000;fill:#444e99;fill-opacity:1;fill-rule:nonzero;stroke:none;stroke-width:0.14117648;stroke-linecap:round;stroke-linejoin:miter;marker:none;marker-start:none;marker-mid:none;marker-end:none;stroke-miterlimit:4;stroke-dasharray:none;stroke-dashoffset:0;stroke-opacity:1;visibility:visible;display:inline;overflow:visible;enable-background:accumulate"
           id="path3558" />
        <path
           d="M 484.78461,136 C 485.85963,134.138 486.65865,132.19128 487.19034,130.20816 L 479.4474,128.11933 C 479.09294,129.44974 478.57744,130.75113 477.8564,131.99999 C 477.13537,133.24887 476.26608,134.34601 475.29114,135.31817 L 480.97158,140.97935 C 482.42318,139.52733 483.70959,137.862 484.78461,136 z "
           style="opacity:1;color:#000000;fill:#e32322;fill-opacity:1;fill-rule:nonzero;stroke:none;stroke-width:0.14117648;stroke-linecap:round;stroke-linejoin:miter;marker:none;marker-start:none;marker-mid:none;marker-end:none;stroke-miterlimit:4;stroke-dasharray:none;stroke-dashoffset:0;stroke-opacity:1;visibility:visible;display:inline;overflow:visible;enable-background:accumulate"
           id="path3560" />
        <path
           d="M 443.21539,112 C 442.14037,113.862 441.34135,115.80872 440.80966,117.79184 L 448.5526,119.88067 C 448.90706,118.55026 449.42256,117.24887 450.1436,116.00001 C 450.86463,114.75113 451.73392,113.65399 452.70886,112.68183 L 447.02842,107.02065 C 445.57682,108.47267 444.29041,110.138 443.21539,112 z "
           style="opacity:1;color:#000000;fill:#008e5b;fill-opacity:1;fill-rule:nonzero;stroke:none;stroke-width:0.14117648;stroke-linecap:round;stroke-linejoin:miter;marker:none;marker-start:none;marker-mid:none;marker-end:none;stroke-miterlimit:4;stroke-dasharray:none;stroke-dashoffset:0;stroke-opacity:1;visibility:visible;display:inline;overflow:visible;enable-background:accumulate"
           id="path3562" />
        <path
           d="M 452,103.21539 C 450.138,104.29041 448.47267,105.57682 447.02065,107.02842 L 452.68183,112.70886 C 453.65399,111.73392 454.75113,110.86463 456.00001,110.1436 C 457.24887,109.42256 458.55026,108.90706 459.88067,108.5526 L 457.79184,100.80966 C 455.80872,101.34136 453.862,102.14037 452,103.21539 z "
           style="opacity:1;color:#000000;fill:#8cbb26;fill-opacity:1;fill-rule:nonzero;stroke:none;stroke-width:0.14117648;stroke-linecap:round;stroke-linejoin:miter;marker:none;marker-start:none;marker-mid:none;marker-end:none;stroke-miterlimit:4;stroke-dasharray:none;stroke-dashoffset:0;stroke-opacity:1;visibility:visible;display:inline;overflow:visible;enable-background:accumulate"
           id="path3564" />
        <path
           d="M 476,144.78461 C 477.862,143.70959 479.52733,142.42318 480.97935,140.97158 L 475.31817,135.29114 C 474.34601,136.26608 473.24887,137.13537 471.99999,137.8564 C 470.75113,138.57744 469.44974,139.09294 468.11933,139.4474 L 470.20816,147.19034 C 472.19128,146.65865 474.138,145.85963 476,144.78461 z "
           style="opacity:1;color:#000000;fill:#c4037d;fill-opacity:1;fill-rule:nonzero;stroke:none;stroke-width:0.14117648;stroke-linecap:round;stroke-linejoin:miter;marker:none;marker-start:none;marker-mid:none;marker-end:none;stroke-miterlimit:4;stroke-dasharray:none;stroke-dashoffset:0;stroke-opacity:1;visibility:visible;display:inline;overflow:visible;enable-background:accumulate"
           id="path3566" />
        <path
           d="M 484.78461,112 C 483.70959,110.138 482.42318,108.47267 480.97158,107.02065 L 475.29114,112.68183 C 476.26608,113.65399 477.13537,114.75113 477.8564,116.00001 C 478.57744,117.24887 479.09294,118.55026 479.4474,119.88067 L 487.19034,117.79184 C 486.65865,115.80872 485.85963,113.862 484.78461,112 z "
           style="opacity:1;color:#000000;fill:#f18e1c;fill-opacity:1;fill-rule:nonzero;stroke:none;stroke-width:0.14117648;stroke-linecap:round;stroke-linejoin:miter;marker:none;marker-start:none;marker-mid:none;marker-end:none;stroke-miterlimit:4;stroke-dasharray:none;stroke-dashoffset:0;stroke-opacity:1;visibility:visible;display:inline;overflow:visible;enable-background:accumulate"
           id="path3568" />
        <path
           d="M 443.21539,136 C 444.29041,137.862 445.57682,139.52733 447.02842,140.97935 L 452.70886,135.31817 C 451.73392,134.34601 450.86463,133.24887 450.1436,131.99999 C 449.42256,130.75113 448.90706,129.44974 448.5526,128.11933 L 440.80966,130.20816 C 441.34135,132.19128 442.14037,134.138 443.21539,136 z "
           style="opacity:1;color:#000000;fill:#2a71b0;fill-opacity:1;fill-rule:nonzero;stroke:none;stroke-width:0.14117648;stroke-linecap:round;stroke-linejoin:miter;marker:none;marker-start:none;marker-mid:none;marker-end:none;stroke-miterlimit:4;stroke-dasharray:none;stroke-dashoffset:0;stroke-opacity:1;visibility:visible;display:inline;overflow:visible;enable-background:accumulate"
           id="path3570" />
      </g>
      <g
         transform="matrix(7.0833333,0,0,7.0833333,-3456.6667,-708.33333)"
         style="stroke:none;stroke-width:0.14117648;stroke-linecap:round;stroke-miterlimit:4;stroke-dasharray:none;stroke-opacity:1"
         id="g3572">
        <path
           d="M 450.1436,131.99999 L 477.8564,131.99999 L 464,140 L 450.1436,131.99999 z "
           style="opacity:1;color:#000000;fill:#6d3889;fill-opacity:1;fill-rule:nonzero;stroke:none;stroke-width:0.14117648;stroke-linecap:round;stroke-linejoin:miter;marker:none;marker-start:none;marker-mid:none;marker-end:none;stroke-miterlimit:4;stroke-dasharray:none;stroke-dashoffset:0;stroke-opacity:1;visibility:visible;display:inline;overflow:visible;enable-background:accumulate"
           id="path3574" />
        <path
           d="M 464,124 L 457.0718,120 L 464,108 L 470.9282,120 L 464,124 z "
           style="color:#000000;fill:#f4e500;fill-opacity:1;fill-rule:nonzero;stroke:none;stroke-width:0.14117648;stroke-linecap:round;stroke-linejoin:miter;marker:none;marker-start:none;marker-mid:none;marker-end:none;stroke-miterlimit:4;stroke-dasharray:none;stroke-dashoffset:0;stroke-opacity:1;visibility:visible;display:inline;overflow:visible;enable-background:accumulate"
           id="path3576" />
        <path
           d="M 464,108.00001 L 450.1436,131.99999 L 450.1436,116.00001 L 464,108.00001 z "
           style="opacity:1;color:#000000;fill:#008e5b;fill-opacity:1;fill-rule:nonzero;stroke:none;stroke-width:0.14117648;stroke-linecap:round;stroke-linejoin:miter;marker:none;marker-start:none;marker-mid:none;marker-end:none;stroke-miterlimit:4;stroke-dasharray:none;stroke-dashoffset:0;stroke-opacity:1;visibility:visible;display:inline;overflow:visible;enable-background:accumulate"
           id="path3578" />
        <path
           d="M 464,124 L 470.9282,120 L 477.8564,131.99999 L 464,131.99999 L 464,124 z "
           style="color:#000000;fill:#e32322;fill-opacity:1;fill-rule:nonzero;stroke:none;stroke-width:0.14117648;stroke-linecap:round;stroke-linejoin:miter;marker:none;marker-start:none;marker-mid:none;marker-end:none;stroke-miterlimit:4;stroke-dasharray:none;stroke-dashoffset:0;stroke-opacity:1;visibility:visible;display:inline;overflow:visible;enable-background:accumulate"
           id="path3580" />
        <path
           d="M 477.85639,131.99999 L 464,108.00001 L 477.8564,116.00001 L 477.85639,131.99999 z "
           style="opacity:1;color:#000000;fill:#f19101;fill-opacity:1;fill-rule:nonzero;stroke:none;stroke-width:0.14117648;stroke-linecap:round;stroke-linejoin:miter;marker:none;marker-start:none;marker-mid:none;marker-end:none;stroke-miterlimit:4;stroke-dasharray:none;stroke-dashoffset:0;stroke-opacity:1;visibility:visible;display:inline;overflow:visible;enable-background:accumulate"
           id="path3582" />
        <path
           d="M 464,124 L 464,131.99999 L 450.1436,131.99999 L 457.0718,120 L 464,124 z "
           style="color:#000000;fill:#2671b2;fill-opacity:1;fill-rule:nonzero;stroke:none;stroke-width:0.14117648;stroke-linecap:round;stroke-linejoin:miter;marker:none;marker-start:none;marker-mid:none;marker-end:none;stroke-miterlimit:4;stroke-dasharray:none;stroke-dashoffset:0;stroke-opacity:1;visibility:visible;display:inline;overflow:visible;enable-background:accumulate"
           id="path3584" />
      </g>
    </g>
  </g>
</svg>
