<?xml version="1.0" encoding="UTF-8" standalone="no"?>
<svg
   xmlns:dc="http://purl.org/dc/elements/1.1/"
   xmlns:cc="http://creativecommons.org/ns#"
   xmlns:rdf="http://www.w3.org/1999/02/22-rdf-syntax-ns#"
   xmlns:svg="http://www.w3.org/2000/svg"
   xmlns="http://www.w3.org/2000/svg"
   xmlns:sodipodi="http://sodipodi.sourceforge.net/DTD/sodipodi-0.dtd"
   xmlns:inkscape="http://www.inkscape.org/namespaces/inkscape"
   width="400.125"
   height="170.125"
   id="svg2"
   version="1.1"
   inkscape:version="0.48.0 r9654"
   sodipodi:docname="Golden_Ratio_Percentage.svg">
  <metadata
     id="metadata22">
    <rdf:RDF>
      <cc:Work
         rdf:about="">
        <dc:format>image/svg+xml</dc:format>
        <dc:type
           rdf:resource="http://purl.org/dc/dcmitype/StillImage" />
        <dc:title />
      </cc:Work>
    </rdf:RDF>
  </metadata>
  <defs
     id="defs20" />
  <sodipodi:namedview
     pagecolor="#ffffff"
     bordercolor="#666666"
     borderopacity="1"
     objecttolerance="10"
     gridtolerance="10"
     guidetolerance="10"
     inkscape:pageopacity="0"
     inkscape:pageshadow="2"
     inkscape:window-width="1309"
     inkscape:window-height="605"
     id="namedview18"
     showgrid="false"
     inkscape:zoom="1.4142136"
     inkscape:cx="155.05257"
     inkscape:cy="74.613382"
     inkscape:window-x="0"
     inkscape:window-y="0"
     inkscape:window-maximized="0"
     inkscape:current-layer="svg2"
     fit-margin-top="0"
     fit-margin-left="0"
     fit-margin-right="0"
     fit-margin-bottom="0"
     showborder="false"
     inkscape:showpageshadow="false">
    <inkscape:grid
       type="xygrid"
       id="grid2999"
       empspacing="5"
       visible="true"
       enabled="true"
       snapvisiblegridlinesonly="true" />
  </sodipodi:namedview>
  <!-- lenght: 322 = 1 -->
  <!-- lenght: 300 = 1.61 -->
  <g
     id="g3182"
     transform="translate(-19.9375,-5.84375)">
    <rect
       y="5.90625"
       x="20"
       height="170"
       width="400"
       id="rect3091"
       style="fill:#f2f2f2;stroke:#000000;stroke-width:0.10140199;stroke-opacity:1" />
    <g
       transform="translate(3.448332,-5.04265)"
       id="g3135">
      <rect
         y="128.64909"
         x="130.85446"
         height="34.567127"
         width="175.39441"
         id="rect3144"
         style="fill:#cccccc;stroke:none" />
      <g
         id="g3328"
         transform="translate(20.0625,-114.3125)">
        <rect
           y="240.96159"
           x="108.79196"
           height="34.567127"
           width="175.39441"
           id="rect3097"
           style="fill:#ffffff;stroke:#000000;stroke-width:0.1;stroke-opacity:1" />
        <g
           id="text3072"
           style="font-size:22px;font-style:normal;font-variant:normal;font-weight:normal;font-stretch:normal;text-align:start;line-height:125%;letter-spacing:0px;word-spacing:0px;writing-mode:lr-tb;text-anchor:start;fill:#000000;fill-opacity:1;stroke:none;font-family:Palatino Linotype;-inkscape-font-specification:Palatino Linotype">
          <path
             id="path3243"
             d="m 124.65079,263.74515 -0.12891,-0.0859 0,-0.53711 0.12891,-0.0644 c 1.04556,-0.0645 1.63817,-0.13965 1.77783,-0.22559 0.13964,-0.0859 0.20946,-0.65169 0.20947,-1.69726 -1.4323,0 -2.70345,-0.21664 -3.81347,-0.64991 -1.11003,-0.43326 -1.89242,-1.08137 -2.34717,-1.94433 -0.45476,-0.86295 -0.68213,-1.78141 -0.68213,-2.75537 0,-0.51562 0.0609,-1.03483 0.18262,-1.55762 0.12174,-0.52278 0.34912,-0.99543 0.68212,-1.41797 0.33301,-0.42251 0.76986,-0.78596 1.31055,-1.09033 0.54069,-0.30435 1.17806,-0.53531 1.91211,-0.69287 0.73405,-0.15754 1.6525,-0.23632 2.75537,-0.23633 -0.0215,-0.73046 -0.0573,-1.15119 -0.10742,-1.26221 -0.0501,-0.11099 -0.15756,-0.18439 -0.32227,-0.22021 -0.16472,-0.0358 -0.68392,-0.0823 -1.55761,-0.13965 l -0.12891,-0.0752 0,-0.53711 0.12891,-0.0752 c 1.08853,0.0573 2.03384,0.0859 2.83593,0.0859 0.86653,10e-6 1.81184,-0.0286 2.83594,-0.0859 l 0.12891,0.0752 0,0.53711 -0.12891,0.0752 c -1.08139,0.0645 -1.67937,0.14145 -1.79394,0.23096 -0.1146,0.0895 -0.18263,0.55323 -0.2041,1.39111 1.6328,1e-5 2.95409,0.17726 3.96386,0.53174 1.00975,0.3545 1.7438,0.89698 2.20215,1.62744 0.45832,0.73048 0.68749,1.57195 0.6875,2.52441 -1e-5,1.12436 -0.21665,2.12338 -0.6499,2.99707 -0.43328,0.87371 -1.20851,1.53614 -2.32568,1.98731 -1.1172,0.45117 -2.40985,0.67676 -3.87793,0.67676 -1e-5,0.58008 0.0161,0.98649 0.0483,1.21923 0.0322,0.23275 0.077,0.37777 0.13427,0.43506 0.0573,0.0573 0.16471,0.10026 0.32227,0.12891 0.15754,0.0286 0.65526,0.0752 1.49316,0.13965 l 0.12891,0.0644 0,0.53711 -0.12891,0.0859 c -1.08139,-0.0573 -2.0267,-0.0859 -2.83594,-0.0859 -0.88086,0 -1.82617,0.0287 -2.83593,0.0859 z m 1.9873,-12.40723 c -0.75196,0.0287 -1.40902,0.12176 -1.97119,0.2793 -0.56218,0.15756 -1.05453,0.42254 -1.47705,0.79492 -0.42253,0.37241 -0.73226,0.84327 -0.9292,1.4126 -0.19694,0.56934 -0.29541,1.22283 -0.29541,1.96045 0,1.55404 0.42968,2.73926 1.28906,3.55566 0.85937,0.81641 1.9873,1.2461 3.38379,1.28906 z m 1.68653,9.29199 c 1.39647,-0.043 2.52619,-0.46907 3.38916,-1.27832 0.86294,-0.80924 1.29442,-2.00878 1.29443,-3.59863 -1e-5,-2.90038 -1.56121,-4.37206 -4.68359,-4.41504 z"
             inkscape:connector-curvature="0" />
          <path
             id="path3245"
             d="m 151.87149,255.8389 -10.35547,0 0,-1.20313 10.35547,0 z m 0,3.26562 -10.35547,0 0,-1.20312 10.35547,0 z"
             inkscape:connector-curvature="0" />
          <path
             id="path3247"
             d="m 159.9711,256.37601 -0.41895,-0.10742 -0.0859,-0.10743 0,-1.33203 c 1.27473,-0.9453 2.51366,-1.41796 3.71679,-1.41797 0.82357,1e-5 1.50748,0.15398 2.05176,0.46192 0.54426,0.30795 0.93814,0.69288 1.18164,1.15478 0.24348,0.46192 0.36523,1.00082 0.36524,1.6167 l -0.0537,2.15918 0,3.20117 c -1e-5,0.43685 0.0304,0.70183 0.0913,0.79493 0.0609,0.0931 0.13069,0.15576 0.20948,0.18798 0.0788,0.0322 0.22557,0.0591 0.44043,0.0806 l 0.6123,0.0537 0.0859,0.0967 0,0.42969 -0.0859,0.0859 c -0.52279,-0.043 -1.00977,-0.0645 -1.46094,-0.0645 -0.42969,0 -0.94532,0.0215 -1.54687,0.0645 l -0.16113,-0.1504 0.043,-1.72949 -2.34179,1.82617 c -0.39389,0.16472 -0.82357,0.24707 -1.28906,0.24707 -0.57292,0 -1.06527,-0.10384 -1.47706,-0.31152 -0.41178,-0.20768 -0.72688,-0.49772 -0.94531,-0.87012 -0.21842,-0.37239 -0.32764,-0.82356 -0.32763,-1.35351 -1e-5,-1.05273 0.32942,-1.87451 0.98828,-2.46533 0.65885,-0.59082 2.45637,-1.09391 5.39257,-1.50928 0,-1.05989 -0.23633,-1.80647 -0.70898,-2.23975 -0.47266,-0.43326 -1.10645,-0.64989 -1.90137,-0.6499 -0.41537,1e-5 -0.79313,0.0609 -1.1333,0.18262 -0.34017,0.12175 -0.53532,0.22022 -0.58545,0.29541 -0.0501,0.0752 -0.24349,0.51384 -0.58007,1.31592 z m 4.98437,1.69726 c -2.00521,0.3366 -3.25488,0.69825 -3.74902,1.08496 -0.49414,0.38673 -0.74121,0.98471 -0.74121,1.79395 0,1.11719 0.55501,1.67578 1.66504,1.67578 0.95247,0 1.8942,-0.55143 2.82519,-1.6543 z"
             inkscape:connector-curvature="0" />
          <path
             id="path3249"
             d="m 171.44376,253.69046 c 0.3509,1e-5 0.65169,0.12534 0.90234,0.37598 0.25065,0.25066 0.37597,0.55502 0.37598,0.91308 -1e-5,0.35092 -0.12533,0.6517 -0.37598,0.90235 -0.25065,0.25066 -0.55144,0.37598 -0.90234,0.37597 -0.35808,1e-5 -0.66244,-0.12531 -0.91309,-0.37597 -0.25065,-0.25065 -0.37598,-0.55143 -0.37598,-0.90235 0,-0.37238 0.12712,-0.68033 0.38135,-0.92383 0.25423,-0.24348 0.5568,-0.36522 0.90772,-0.36523 z m 0,7.59473 c 0.34374,0 0.64273,0.12174 0.89697,0.36523 0.25423,0.24349 0.38134,0.55143 0.38135,0.92383 -1e-5,0.35091 -0.12533,0.65169 -0.37598,0.90234 -0.25065,0.25065 -0.55144,0.37598 -0.90234,0.37598 -0.35808,0 -0.66244,-0.12354 -0.91309,-0.37061 -0.25065,-0.24707 -0.37598,-0.54964 -0.37598,-0.90771 0,-0.35807 0.12533,-0.66243 0.37598,-0.91309 0.25065,-0.25065 0.55501,-0.37597 0.91309,-0.37597 z"
             inkscape:connector-curvature="0" />
          <path
             id="path3251"
             d="m 174.05411,249.18948 -0.0967,-0.0967 0,-0.45117 0.0859,-0.0967 c 1.36783,-0.15753 2.52083,-0.42251 3.45898,-0.79492 l 0.2041,0.12891 c -0.0788,0.82358 -0.11817,2.47429 -0.11816,4.95215 l 0,2.73925 c 0.13606,-0.17903 0.39029,-0.45295 0.76269,-0.82177 0.37239,-0.36881 0.67497,-0.62841 0.90772,-0.77881 0.23274,-0.15038 0.55142,-0.28287 0.95605,-0.39746 0.40462,-0.11458 0.82893,-0.17187 1.27295,-0.17188 0.80924,10e-6 1.52001,0.20053 2.13233,0.60156 0.61229,0.40105 1.06704,0.93637 1.36425,1.60596 0.29719,0.6696 0.44579,1.38396 0.4458,2.14307 -1e-5,0.72331 -0.12354,1.41081 -0.3706,2.0625 -0.24708,0.65169 -0.53891,1.1888 -0.87549,1.61133 -0.20053,0.24349 -0.55502,0.55143 -1.06348,0.92382 -0.99545,0.72331 -1.69548,1.17627 -2.10009,1.35889 -0.40463,0.18262 -0.92921,0.27393 -1.57373,0.27393 -0.50131,0 -0.95606,-0.0698 -1.36426,-0.20948 -0.40821,-0.13965 -0.83073,-0.35986 -1.26758,-0.66064 l -0.87012,0.8164 -0.35449,-0.13964 c 0.13607,-1.30339 0.2041,-2.78581 0.2041,-4.44727 l 0,-5.69336 -0.043,-2.0625 c -0.0215,-0.78775 -0.0448,-1.34097 -0.0698,-1.65967 -0.0251,-0.31867 -0.0591,-0.50666 -0.10205,-0.56396 -0.043,-0.0573 -0.11638,-0.10025 -0.22022,-0.12891 -0.10384,-0.0286 -0.5389,-0.0429 -1.30517,-0.043 z m 3.53418,7.66993 0,4.02832 c -1e-5,0.33659 0.0161,0.5568 0.0483,0.66064 0.0322,0.10384 0.17545,0.2614 0.42968,0.47266 0.25423,0.21126 0.58187,0.39388 0.98291,0.54785 0.40104,0.15397 0.81641,0.23096 1.2461,0.23096 1.01692,0 1.81363,-0.39388 2.39014,-1.18165 0.57648,-0.78775 0.86473,-1.78678 0.86474,-2.99707 -1e-5,-0.7591 -0.11996,-1.43049 -0.35986,-2.01416 -0.23992,-0.58365 -0.59978,-1.02945 -1.07959,-1.3374 -0.47983,-0.30793 -1.02052,-0.4619 -1.62207,-0.46191 -0.70899,1e-5 -1.33383,0.20948 -1.87451,0.62842 -0.5407,0.41895 -0.88266,0.89339 -1.02588,1.42334 z"
             inkscape:connector-curvature="0" />
          <path
             id="path3253"
             d="m 202.53165,255.8389 -10.35547,0 0,-1.20313 10.35547,0 z m 0,3.26562 -10.35547,0 0,-1.20312 10.35547,0 z"
             inkscape:connector-curvature="0" />
          <path
             id="path3255"
             d="m 214.34805,268.74026 c -1.49675,-1.26758 -2.65332,-2.79118 -3.46972,-4.5708 -0.81641,-1.77962 -1.22461,-3.68277 -1.22461,-5.70947 0,-1.64713 0.22916,-3.11164 0.6875,-4.39355 0.45833,-1.28189 1.09749,-2.45995 1.91748,-3.53418 0.81998,-1.07421 1.54508,-1.8369 2.17529,-2.28809 l 0.11816,0.0107 0.33301,0.41895 0,0.11816 c -2.23438,2.40627 -3.35156,5.55014 -3.35156,9.43164 0,2.14844 0.24886,3.98357 0.74658,5.50537 0.49772,1.52181 1.36604,3.02751 2.60498,4.51709 l -0.0107,0.12891 -0.39746,0.35449 z"
             inkscape:connector-curvature="0" />
          <path
             id="path3257"
             d="m 217.97891,256.37601 -0.41894,-0.10742 -0.0859,-0.10743 0,-1.33203 c 1.27474,-0.9453 2.51367,-1.41796 3.7168,-1.41797 0.82356,1e-5 1.50748,0.15398 2.05175,0.46192 0.54427,0.30795 0.93815,0.69288 1.18164,1.15478 0.24349,0.46192 0.36523,1.00082 0.36524,1.6167 l -0.0537,2.15918 0,3.20117 c -1e-5,0.43685 0.0304,0.70183 0.0913,0.79493 0.0609,0.0931 0.13068,0.15576 0.20947,0.18798 0.0788,0.0322 0.22558,0.0591 0.44043,0.0806 l 0.6123,0.0537 0.0859,0.0967 0,0.42969 -0.0859,0.0859 c -0.52279,-0.043 -1.00977,-0.0645 -1.46093,-0.0645 -0.4297,0 -0.94532,0.0215 -1.54688,0.0645 l -0.16113,-0.1504 0.043,-1.72949 -2.3418,1.82617 c -0.39388,0.16472 -0.82357,0.24707 -1.28906,0.24707 -0.57292,0 -1.06527,-0.10384 -1.47705,-0.31152 -0.41179,-0.20768 -0.72689,-0.49772 -0.94532,-0.87012 -0.21842,-0.37239 -0.32763,-0.82356 -0.32763,-1.35351 0,-1.05273 0.32942,-1.87451 0.98828,-2.46533 0.65885,-0.59082 2.45638,-1.09391 5.39258,-1.50928 -1e-5,-1.05989 -0.23634,-1.80647 -0.70899,-2.23975 -0.47266,-0.43326 -1.10645,-0.64989 -1.90136,-0.6499 -0.41537,1e-5 -0.79314,0.0609 -1.1333,0.18262 -0.34018,0.12175 -0.53533,0.22022 -0.58545,0.29541 -0.0501,0.0752 -0.2435,0.51384 -0.58008,1.31592 z m 4.98438,1.69726 c -2.00522,0.3366 -3.25489,0.69825 -3.74903,1.08496 -0.49414,0.38673 -0.74121,0.98471 -0.74121,1.79395 0,1.11719 0.55501,1.67578 1.66504,1.67578 0.95247,0 1.8942,-0.55143 2.8252,-1.6543 z"
             inkscape:connector-curvature="0" />
          <path
             id="path3259"
             d="m 237.3793,257.47171 -4.55468,0 0,4.55469 -1.2461,0 0,-4.55469 -4.55469,0 0,-1.20312 4.55469,0 0,-4.55469 1.2461,0 0,4.55469 4.55468,0 z"
             inkscape:connector-curvature="0" />
          <path
             id="path3261"
             d="m 237.56192,249.18948 -0.0967,-0.0967 0,-0.45117 0.0859,-0.0967 c 1.36784,-0.15753 2.52083,-0.42251 3.45898,-0.79492 l 0.2041,0.12891 c -0.0788,0.82358 -0.11816,2.47429 -0.11816,4.95215 l 0,2.73925 c 0.13606,-0.17903 0.3903,-0.45295 0.7627,-0.82177 0.37239,-0.36881 0.67496,-0.62841 0.90771,-0.77881 0.23274,-0.15038 0.55143,-0.28287 0.95605,-0.39746 0.40462,-0.11458 0.82894,-0.17187 1.27295,-0.17188 0.80924,10e-6 1.52001,0.20053 2.13233,0.60156 0.61229,0.40105 1.06704,0.93637 1.36426,1.60596 0.29719,0.6696 0.44579,1.38396 0.4458,2.14307 -1e-5,0.72331 -0.12355,1.41081 -0.37061,2.0625 -0.24708,0.65169 -0.53891,1.1888 -0.87549,1.61133 -0.20053,0.24349 -0.55502,0.55143 -1.06347,0.92382 -0.99545,0.72331 -1.69549,1.17627 -2.1001,1.35889 -0.40463,0.18262 -0.92921,0.27393 -1.57373,0.27393 -0.50131,0 -0.95606,-0.0698 -1.36426,-0.20948 -0.40821,-0.13965 -0.83073,-0.35986 -1.26758,-0.66064 l -0.87011,0.8164 -0.3545,-0.13964 c 0.13607,-1.30339 0.2041,-2.78581 0.2041,-4.44727 l 0,-5.69336 -0.043,-2.0625 c -0.0215,-0.78775 -0.0448,-1.34097 -0.0698,-1.65967 -0.0251,-0.31867 -0.0591,-0.50666 -0.10205,-0.56396 -0.043,-0.0573 -0.11637,-0.10025 -0.22021,-0.12891 -0.10385,-0.0286 -0.5389,-0.0429 -1.30518,-0.043 z m 3.53418,7.66993 0,4.02832 c 0,0.33659 0.0161,0.5568 0.0483,0.66064 0.0322,0.10384 0.17545,0.2614 0.42969,0.47266 0.25422,0.21126 0.58186,0.39388 0.98291,0.54785 0.40103,0.15397 0.8164,0.23096 1.24609,0.23096 1.01692,0 1.81363,-0.39388 2.39014,-1.18165 0.57649,-0.78775 0.86473,-1.78678 0.86474,-2.99707 -1e-5,-0.7591 -0.11996,-1.43049 -0.35986,-2.01416 -0.23992,-0.58365 -0.59978,-1.02945 -1.07959,-1.3374 -0.47982,-0.30793 -1.02051,-0.4619 -1.62207,-0.46191 -0.70899,1e-5 -1.33383,0.20948 -1.87451,0.62842 -0.5407,0.41895 -0.88265,0.89339 -1.02588,1.42334 z"
             inkscape:connector-curvature="0" />
          <path
             id="path3263"
             d="m 251.19376,268.74026 -0.12891,-0.0107 -0.4082,-0.35449 0,-0.12891 c 1.23893,-1.48958 2.10725,-2.99707 2.60498,-4.52246 0.49771,-1.52539 0.74658,-3.35872 0.74658,-5.5 0,-3.8815 -1.11719,-7.02537 -3.35156,-9.43164 l 0,-0.11816 0.333,-0.41895 0.11817,-0.0107 c 1.10286,0.80926 2.17529,2.10369 3.21728,3.8833 1.04199,1.77963 1.56299,3.89047 1.56299,6.33252 0,1.97657 -0.39567,3.85466 -1.18701,5.63428 -0.79134,1.77962 -1.96045,3.32828 -3.50732,4.64599 z"
             inkscape:connector-curvature="0" />
          <path
             id="path3265"
             d="m 259.95938,253.69046 c 0.35091,1e-5 0.65169,0.12534 0.90234,0.37598 0.25065,0.25066 0.37598,0.55502 0.37598,0.91308 0,0.35092 -0.12533,0.6517 -0.37598,0.90235 -0.25065,0.25066 -0.55143,0.37598 -0.90234,0.37597 -0.35807,1e-5 -0.66244,-0.12531 -0.91308,-0.37597 -0.25066,-0.25065 -0.37598,-0.55143 -0.37598,-0.90235 0,-0.37238 0.12711,-0.68033 0.38135,-0.92383 0.25423,-0.24348 0.5568,-0.36522 0.90771,-0.36523 z m 0,7.59473 c 0.34375,0 0.64274,0.12174 0.89697,0.36523 0.25423,0.24349 0.38135,0.55143 0.38135,0.92383 0,0.35091 -0.12533,0.65169 -0.37598,0.90234 -0.25065,0.25065 -0.55143,0.37598 -0.90234,0.37598 -0.35807,0 -0.66244,-0.12354 -0.91308,-0.37061 -0.25066,-0.24707 -0.37598,-0.54964 -0.37598,-0.90771 0,-0.35807 0.12532,-0.66243 0.37598,-0.91309 0.25064,-0.25065 0.55501,-0.37597 0.91308,-0.37597 z"
             inkscape:connector-curvature="0" />
          <path
             id="path3267"
             d="m 264.98672,256.37601 -0.41894,-0.10742 -0.0859,-0.10743 0,-1.33203 c 1.27474,-0.9453 2.51367,-1.41796 3.7168,-1.41797 0.82356,1e-5 1.50748,0.15398 2.05176,0.46192 0.54426,0.30795 0.93814,0.69288 1.18164,1.15478 0.24348,0.46192 0.36522,1.00082 0.36523,1.6167 l -0.0537,2.15918 0,3.20117 c -10e-6,0.43685 0.0304,0.70183 0.0913,0.79493 0.0609,0.0931 0.13069,0.15576 0.20947,0.18798 0.0788,0.0322 0.22558,0.0591 0.44043,0.0806 l 0.61231,0.0537 0.0859,0.0967 0,0.42969 -0.0859,0.0859 c -0.5228,-0.043 -1.00978,-0.0645 -1.46094,-0.0645 -0.4297,0 -0.94532,0.0215 -1.54688,0.0645 l -0.16113,-0.1504 0.043,-1.72949 -2.3418,1.82617 c -0.39388,0.16472 -0.82357,0.24707 -1.28906,0.24707 -0.57292,0 -1.06527,-0.10384 -1.47705,-0.31152 -0.41179,-0.20768 -0.72689,-0.49772 -0.94531,-0.87012 -0.21843,-0.37239 -0.32764,-0.82356 -0.32764,-1.35351 0,-1.05273 0.32943,-1.87451 0.98828,-2.46533 0.65885,-0.59082 2.45638,-1.09391 5.39258,-1.50928 -10e-6,-1.05989 -0.23634,-1.80647 -0.70898,-2.23975 -0.47267,-0.43326 -1.10646,-0.64989 -1.90137,-0.6499 -0.41537,1e-5 -0.79314,0.0609 -1.1333,0.18262 -0.34017,0.12175 -0.53532,0.22022 -0.58545,0.29541 -0.0501,0.0752 -0.24349,0.51384 -0.58008,1.31592 z m 4.98438,1.69726 c -2.00521,0.3366 -3.25489,0.69825 -3.74902,1.08496 -0.49415,0.38673 -0.74122,0.98471 -0.74121,1.79395 -10e-6,1.11719 0.55501,1.67578 1.66503,1.67578 0.95247,0 1.8942,-0.55143 2.8252,-1.6543 z"
             inkscape:connector-curvature="0" />
        </g>
      </g>
      <g
         id="g3137">
        <rect
           y="77.054932"
           x="261.05167"
           height="3.9754562"
           width="144"
           id="rect3003"
           style="fill:#000000;fill-opacity:1;stroke:none" />
        <rect
           y="76.98175"
           x="28.051666"
           height="4.1218195"
           width="233"
           id="rect3005"
           style="fill:#000000;fill-opacity:1;stroke:none" />
        <path
           inkscape:connector-curvature="0"
           id="path3007"
           d="m 405.05167,71.54266 0,15"
           style="fill:none;stroke:#000000;stroke-width:0.88852328;stroke-linecap:butt;stroke-linejoin:miter;stroke-opacity:1" />
        <path
           inkscape:connector-curvature="0"
           id="path3007-8"
           d="m 261.05167,71.54266 0,15"
           style="fill:none;stroke:#000000;stroke-width:0.88852322;stroke-linecap:butt;stroke-linejoin:miter;stroke-opacity:1" />
        <path
           inkscape:connector-curvature="0"
           id="path3007-82"
           d="m 28.051666,71.54266 0,15"
           style="fill:none;stroke:#000000;stroke-width:0.88852328;stroke-linecap:butt;stroke-linejoin:miter;stroke-opacity:1" />
        <g
           transform="translate(20.0625,-114.3125)"
           id="text3034"
           style="font-size:48px;font-style:normal;font-variant:normal;font-weight:normal;font-stretch:normal;text-align:start;line-height:125%;letter-spacing:0px;word-spacing:0px;writing-mode:lr-tb;text-anchor:start;fill:#000000;fill-opacity:1;stroke:none;font-family:Palatino Linotype;-inkscape-font-specification:Palatino Linotype">
          <path
             inkscape:connector-curvature="0"
             id="path3211"
             d="m 117.0712,164.08171 -0.91406,-0.23437 -0.1875,-0.23438 0,-2.90625 c 2.78124,-2.06248 5.48436,-3.09373 8.10937,-3.09375 1.79686,2e-5 3.28905,0.33596 4.47656,1.00781 1.18748,0.6719 2.04686,1.51174 2.57813,2.51953 0.53123,1.00783 0.79685,2.18361 0.79687,3.52735 l -0.11718,4.71094 0,6.98437 c -2e-5,0.95313 0.0664,1.53125 0.19921,1.73438 0.1328,0.20312 0.28514,0.33984 0.45704,0.41015 0.17185,0.0703 0.49216,0.12891 0.96093,0.17578 l 1.33594,0.11719 0.1875,0.21094 0,0.9375 -0.1875,0.1875 c -1.14065,-0.0937 -2.20315,-0.14063 -3.1875,-0.14063 -0.93752,0 -2.06252,0.0469 -3.375,0.14063 l -0.35156,-0.32813 0.0937,-3.77343 -5.10938,3.98437 c -0.85938,0.35938 -1.79688,0.53906 -2.8125,0.53906 -1.25,0 -2.32422,-0.22656 -3.22265,-0.67968 -0.89845,-0.45313 -1.58594,-1.08594 -2.0625,-1.89844 -0.47657,-0.8125 -0.71485,-1.79687 -0.71485,-2.95313 0,-2.29686 0.71875,-4.08983 2.15625,-5.3789 1.4375,-1.28905 5.35937,-2.38671 11.76563,-3.29297 -2e-5,-2.31249 -0.51564,-3.94139 -1.54688,-4.88672 -1.03126,-0.94529 -2.41407,-1.41795 -4.14843,-1.41797 -0.90626,2e-5 -1.73048,0.13283 -2.47266,0.39844 -0.7422,0.26564 -1.16798,0.48049 -1.27734,0.64453 -0.10939,0.16408 -0.53126,1.12111 -1.26563,2.87109 z m 10.875,3.70313 c -4.37501,0.73438 -7.10157,1.52344 -8.17969,2.36718 -1.07813,0.84376 -1.61719,2.14845 -1.61719,3.91407 0,2.4375 1.21093,3.65625 3.63282,3.65625 2.07811,0 4.13279,-1.20313 6.16406,-3.60938 z" />
        </g>
        <g
           transform="translate(20.0625,-114.3125)"
           id="text3038"
           style="font-size:48px;font-style:normal;font-variant:normal;font-weight:normal;font-stretch:normal;text-align:start;line-height:125%;letter-spacing:0px;word-spacing:0px;writing-mode:lr-tb;text-anchor:start;fill:#000000;fill-opacity:1;stroke:none;font-family:Palatino Linotype;-inkscape-font-specification:Palatino Linotype">
          <path
             inkscape:connector-curvature="0"
             id="path3214"
             d="m 300.68448,148.40202 -0.21094,-0.21093 0,-0.98438 0.1875,-0.21094 c 2.98437,-0.34371 5.5,-0.92184 7.54688,-1.73437 l 0.44531,0.28125 c -0.17188,1.79691 -0.25782,5.39846 -0.25781,10.80469 l 0,5.97656 c 0.29686,-0.39061 0.85155,-0.98826 1.66406,-1.79297 0.81249,-0.80467 1.47264,-1.37107 1.98047,-1.69922 0.5078,-0.3281 1.20311,-0.61716 2.08594,-0.86719 0.88279,-0.24997 1.80857,-0.37497 2.77734,-0.375 1.76561,3e-5 3.31639,0.43753 4.65234,1.3125 1.33592,0.87502 2.3281,2.04299 2.97657,3.50391 0.64841,1.46095 0.97263,3.01955 0.97265,4.67578 -2e-5,1.57814 -0.26955,3.07814 -0.80859,4.5 -0.53909,1.42188 -1.17581,2.59376 -1.91016,3.51563 -0.43752,0.53125 -1.21096,1.20312 -2.32031,2.01562 -2.17189,1.57813 -3.69924,2.56641 -4.58203,2.96484 -0.88283,0.39844 -2.02736,0.59766 -3.4336,0.59766 -1.09376,0 -2.08594,-0.15234 -2.97656,-0.45703 -0.89063,-0.30469 -1.81251,-0.78516 -2.76562,-1.44141 l -1.89844,1.78125 -0.77344,-0.30468 c 0.29687,-2.84375 0.44531,-6.07812 0.44531,-9.70313 l 0,-12.42187 -0.0937,-4.5 c -0.0469,-1.71873 -0.0977,-2.92576 -0.15234,-3.6211 -0.0547,-0.69528 -0.12891,-1.10544 -0.22266,-1.23047 -0.0937,-0.12497 -0.25391,-0.21872 -0.48046,-0.28125 -0.22657,-0.0625 -1.17579,-0.0937 -2.84766,-0.0937 z m 7.71094,16.73438 0,8.78906 c -10e-6,0.73438 0.0351,1.21485 0.10547,1.44141 0.0703,0.22656 0.3828,0.57031 0.9375,1.03125 0.55467,0.46094 1.26952,0.85937 2.14453,1.19531 0.87498,0.33594 1.78123,0.50391 2.71875,0.50391 2.21873,0 3.95701,-0.85938 5.21484,-2.57813 1.25779,-1.71874 1.8867,-3.89843 1.88672,-6.53906 -2e-5,-1.65624 -0.26174,-3.12108 -0.78516,-4.39453 -0.52345,-1.27342 -1.30861,-2.24608 -2.35547,-2.91797 -1.04689,-0.67186 -2.22657,-1.00779 -3.53906,-1.00781 -1.54689,2e-5 -2.91017,0.45705 -4.08984,1.37109 -1.1797,0.91408 -1.92579,1.94923 -2.23828,3.10547 z" />
        </g>
        <g
           id="text3147"
           style="font-size:24px;font-style:italic;font-variant:normal;font-weight:normal;font-stretch:normal;text-align:start;line-height:125%;letter-spacing:0px;word-spacing:0px;writing-mode:lr-tb;text-anchor:start;fill:#000000;fill-opacity:1;stroke:none;font-family:Palatino Linotype;-inkscape-font-specification:Palatino Linotype Italic">
          <path
             inkscape:connector-curvature="0"
             id="path3121"
             d="m 102.59268,102.49334 0.12891,0.32812 -0.0352,0.14063 c -0.94532,0.78906 -1.81446,1.39648 -2.60742,1.82227 -0.792974,0.42578 -1.552739,0.63867 -2.279297,0.63867 -0.96094,0 -1.687502,-0.29883 -2.179687,-0.89649 -0.492189,-0.59765 -0.738282,-1.48242 -0.738282,-2.65429 0,-0.71875 0.08594,-1.48242 0.257813,-2.29102 0.171874,-0.808587 0.402342,-1.513665 0.691406,-2.115234 0.289061,-0.601555 0.591795,-1.078117 0.908203,-1.429688 0.316404,-0.351553 0.791012,-0.726552 1.423828,-1.125 0.851558,-0.531239 1.511714,-0.878895 1.980466,-1.042968 0.46875,-0.164052 0.91796,-0.246083 1.34766,-0.246094 0.76562,1.1e-5 1.42577,0.191417 1.98047,0.574219 l 0.0351,0.152343 c -0.22657,0.929698 -0.39844,1.871103 -0.51562,2.824219 l -0.0937,0.09375 -0.36328,0 -0.0937,-0.09375 0,-0.785156 c 0.008,-0.156241 0.0117,-0.289054 0.0117,-0.398438 -1e-5,-0.257803 -0.0469,-0.457021 -0.14063,-0.597656 -0.0938,-0.140615 -0.31251,-0.269521 -0.65625,-0.386719 -0.34376,-0.117177 -0.73047,-0.175771 -1.16015,-0.175781 -0.820322,10e-6 -1.474619,0.212901 -1.962895,0.638672 -0.488285,0.42579 -0.925785,1.277352 -1.3125,2.554687 -0.386721,1.27735 -0.580081,2.404304 -0.580078,3.380864 -3e-6,0.97656 0.191403,1.68554 0.574219,2.12695 0.382809,0.44141 0.874996,0.66211 1.476562,0.66211 0.492183,0 1.007807,-0.11328 1.546872,-0.33985 0.53906,-0.22656 1.28515,-0.6914 2.23828,-1.39453 z" />
          <path
             inkscape:connector-curvature="0"
             id="path3123"
             d="m 113.67862,102.72771 0.082,0.31641 -0.0469,0.14063 c -1.64064,1.41406 -2.75782,2.12109 -3.35157,2.12109 -0.39063,0 -0.58594,-0.25 -0.58593,-0.75 -10e-6,-0.24219 0.0254,-0.54883 0.0762,-0.91992 0.0508,-0.37109 0.12694,-0.7793 0.22851,-1.22461 l 0.29297,-1.25391 0.17578,-0.6914 -0.0703,-0.0352 c -1.16407,1.65625 -2.25196,2.89844 -3.26367,3.72656 -1.01172,0.82813 -1.72071,1.24219 -2.12695,1.24219 -0.54688,0 -0.82032,-0.66797 -0.82032,-2.00391 0,-0.83593 0.12696,-1.78515 0.38086,-2.84765 0.25391,-1.062497 0.56445,-2.046871 0.93164,-2.953128 0.36719,-0.906242 0.66211,-1.501944 0.88477,-1.787109 0.22265,-0.285147 0.59375,-0.611319 1.11328,-0.978516 0.51953,-0.367177 1.00585,-0.648427 1.45898,-0.84375 0.45312,-0.195301 0.95703,-0.292957 1.51172,-0.292969 0.67968,1.2e-5 1.40234,0.140636 2.16797,0.421875 l 0.75,-0.445312 0.25781,0.210937 c -0.0234,0.117199 -0.18751,0.703136 -0.49218,1.757813 l -0.53907,1.992187 -0.29296,1.160157 c -0.21095,0.82813 -0.40626,1.693365 -0.58594,2.595705 -0.1797,0.90234 -0.26954,1.51758 -0.26953,1.8457 -1e-5,0.3125 0.10546,0.46875 0.3164,0.46875 0.13281,0 0.30859,-0.0586 0.52735,-0.17578 0.21874,-0.11719 0.61327,-0.39453 1.18359,-0.83203 z m -1.98047,-7.464839 c -0.59376,-0.273428 -1.23438,-0.410146 -1.92187,-0.410156 -0.57032,1e-5 -1.07813,0.105478 -1.52344,0.316406 -0.16407,0.12501 -0.33204,0.345712 -0.50391,0.662109 -0.17188,0.316415 -0.41406,0.906258 -0.72656,1.769531 -0.3125,0.863288 -0.56641,1.785162 -0.76172,2.765629 -0.19531,0.98047 -0.29297,1.75976 -0.29297,2.33789 0,0.42969 0.0371,0.70703 0.11133,0.83203 0.0742,0.125 0.18554,0.1875 0.33398,0.1875 0.28125,0 0.83203,-0.37891 1.65235,-1.13672 0.82031,-0.75781 1.51366,-1.63672 2.08008,-2.636719 0.5664,-0.999994 1.03319,-2.33593 1.40039,-4.007813 z" />
          <path
             inkscape:connector-curvature="0"
             id="path3125"
             d="m 115.71768,103.9699 c 0,-0.42968 0.13672,-0.80078 0.41016,-1.11328 0.27343,-0.3125 0.60156,-0.46875 0.98437,-0.46875 0.35938,0 0.63086,0.10352 0.81446,0.31055 0.18359,0.20703 0.27538,0.48242 0.27539,0.82617 -1e-5,0.45313 -0.12891,0.85156 -0.38672,1.19531 -0.25782,0.34375 -0.59766,0.51563 -1.01953,0.51563 -0.33594,0 -0.59961,-0.11719 -0.79102,-0.35157 -0.19141,-0.23437 -0.28711,-0.53906 -0.28711,-0.91406 z" />
          <path
             inkscape:connector-curvature="0"
             id="path3127"
             d="m 137.03409,90.247246 -0.1875,0.02344 c -0.47657,-0.281235 -0.96486,-0.42186 -1.46485,-0.421875 -1.36719,1.5e-5 -2.55664,0.654312 -3.56835,1.962891 -1.01173,1.308606 -1.80274,3.310557 -2.37305,6.005859 0.64843,-0.828117 1.30859,-1.44921 1.98047,-1.863281 0.67187,-0.414053 1.40233,-0.621084 2.1914,-0.621094 0.63281,1e-5 1.20507,0.136729 1.7168,0.410157 0.51171,0.273446 0.90624,0.685555 1.18359,1.236328 0.27734,0.550788 0.41601,1.201178 0.41602,1.951172 -1e-5,0.757817 -0.1211,1.498047 -0.36328,2.220697 -0.2422,0.72266 -0.53907,1.31446 -0.89063,1.77539 -0.35157,0.46094 -0.83985,0.9043 -1.46484,1.33008 -0.62501,0.42578 -1.15626,0.73242 -1.59375,0.91992 -0.43751,0.1875 -0.91797,0.28125 -1.44141,0.28125 -1.125,0 -2.03125,-0.40625 -2.71875,-1.21875 -0.6875,-0.8125 -1.03125,-2.00781 -1.03125,-3.58593 0,-1.45312 0.24805,-2.960931 0.74414,-4.523439 0.4961,-1.562489 1.24219,-2.939441 2.23829,-4.130859 0.99608,-1.191392 1.98046,-2.044907 2.95312,-2.560547 0.97265,-0.515609 1.92382,-0.773421 2.85352,-0.773437 0.37499,1.6e-5 0.77733,0.07424 1.20703,0.222656 z m -7.79297,10.875004 c 0,1.08594 0.25195,1.89453 0.75586,2.42578 0.5039,0.53125 1.11913,0.79687 1.8457,0.79687 0.67187,0 1.26171,-0.22656 1.76953,-0.67969 0.50781,-0.45312 0.88671,-1.0664 1.13672,-1.83984 0.24999,-0.77343 0.37499,-1.51562 0.375,-2.226562 -1e-5,-0.921868 -0.23438,-1.644524 -0.70312,-2.167968 -0.46876,-0.52343 -1.0586,-0.785148 -1.76953,-0.785157 -0.63282,9e-6 -1.23243,0.203133 -1.79883,0.609375 -0.56641,0.406258 -0.97657,0.94532 -1.23047,1.617188 -0.25391,0.67188 -0.38086,1.421884 -0.38086,2.250004 z" />
          <path
             inkscape:connector-curvature="0"
             id="path3129"
             d="m 140.1044,105.11834 -0.0937,-0.0937 0.0586,-0.50391 0.10547,-0.10547 c 0.19531,-0.0234 0.47656,-0.0508 0.84375,-0.082 0.5,-0.0234 0.88672,-0.0703 1.16016,-0.14062 0.39062,-0.10156 0.65429,-0.30664 0.79102,-0.61524 0.13671,-0.30859 0.27538,-0.85742 0.41601,-1.64648 l 1.95703,-11.789063 c -1.22657,0.460952 -2.71485,1.109389 -4.46484,1.945313 l -0.15235,-0.105469 0.2461,-1.40625 c 0.87499,-0.156236 2.16796,-0.519516 3.8789,-1.089844 0.63281,-0.210922 1.4414,-0.542953 2.42579,-0.996094 l 0.33984,0.28125 c -0.35157,1.531265 -0.73048,3.464857 -1.13672,5.800782 l -0.66797,3.820312 c -0.21876,1.242193 -0.38282,2.269533 -0.49219,3.082033 -0.15625,1.19531 -0.23438,1.84375 -0.23437,1.94531 -1e-5,0.34375 0.1289,0.57422 0.38672,0.69141 0.2578,0.11719 0.8203,0.20312 1.6875,0.25781 0.43749,0.0234 0.74999,0.0469 0.9375,0.0703 l 0.0703,0.0937 -0.0352,0.49219 -0.10546,0.0937 c -1.40626,-0.0625 -2.8086,-0.0937 -4.20704,-0.0937 -1.75,0 -2.98828,0.0312 -3.71484,0.0937 z" />
          <path
             inkscape:connector-curvature="0"
             id="path3131"
             d="m 150.11221,108.5285 -0.1875,-0.22266 c 0.35938,-0.39844 0.75586,-1.05664 1.18946,-1.97461 0.43359,-0.91797 0.7871,-2.06445 1.06054,-3.43945 0.98438,-0.24219 1.71094,-0.47266 2.17969,-0.69141 l 0.23438,0.31641 c -0.33595,0.79687 -0.89063,1.80469 -1.66407,3.02343 -0.77344,1.21875 -1.4414,2.11328 -2.0039,2.6836 z" />
          <path
             inkscape:connector-curvature="0"
             id="path3133"
             d="m 161.40909,96.821465 c -0.82813,-0.421867 -1.42969,-0.892569 -1.80469,-1.41211 -0.375,-0.519521 -0.5625,-1.130848 -0.5625,-1.833984 0,-1.249988 0.55859,-2.378893 1.67578,-3.386719 1.11718,-1.007797 2.32031,-1.511702 3.60938,-1.511719 0.95311,1.7e-5 1.70507,0.275407 2.25586,0.826172 0.55077,0.550796 0.82616,1.244155 0.82617,2.080078 -1e-5,0.820325 -0.24025,1.58009 -0.7207,2.279297 -0.48048,0.699229 -1.42775,1.486338 -2.8418,2.361328 1.0078,0.484384 1.70116,1.001961 2.08008,1.552735 0.37889,0.550788 0.56835,1.236334 0.56836,2.05664 -1e-5,0.742197 -0.13087,1.462897 -0.39258,2.162107 -0.26173,0.69922 -0.66798,1.30274 -1.21875,1.81055 -0.55079,0.50781 -1.18556,0.9043 -1.9043,1.18945 -0.71876,0.28516 -1.44532,0.42774 -2.17969,0.42774 -0.67969,0 -1.30273,-0.11914 -1.86914,-0.35742 -0.56641,-0.23829 -1.01367,-0.63672 -1.34179,-1.19532 -0.32813,-0.55859 -0.49219,-1.17382 -0.49219,-1.8457 0,-0.97656 0.33008,-1.89453 0.99023,-2.753907 0.66016,-0.859368 1.76758,-1.675774 3.32227,-2.449218 z m 1.75781,-0.949219 c 0.49218,-0.304678 0.93163,-0.642569 1.31836,-1.013672 0.38671,-0.371083 0.70312,-0.818348 0.94922,-1.341797 0.24608,-0.523425 0.36913,-1.027331 0.36914,-1.511719 -1e-5,-0.718736 -0.21485,-1.287095 -0.64453,-1.705078 -0.4297,-0.417953 -0.98438,-0.626938 -1.66406,-0.626953 -0.4922,1.5e-5 -0.96485,0.128922 -1.41797,0.386719 -0.45313,0.257827 -0.81251,0.619155 -1.07813,1.083984 -0.26563,0.464857 -0.39844,0.994154 -0.39844,1.587891 0,0.734386 0.20703,1.333995 0.6211,1.798828 0.41406,0.464854 1.06249,0.912119 1.94531,1.341797 z m -1.08984,1.324219 c -0.97657,0.421882 -1.76368,1.035163 -2.36133,1.839843 -0.59766,0.804693 -0.89649,1.675782 -0.89649,2.613282 0,0.85156 0.24805,1.5293 0.74415,2.0332 0.49609,0.50391 1.12694,0.75586 1.89257,0.75586 0.98437,0 1.77343,-0.38281 2.36719,-1.14844 0.59374,-0.76562 0.89062,-1.66405 0.89063,-2.69531 -1e-5,-0.734368 -0.18361,-1.349602 -0.55079,-1.845701 -0.36719,-0.496087 -1.0625,-1.013665 -2.08593,-1.552734 z" />
          <path
             inkscape:connector-curvature="0"
             id="path3135"
             d="M 190.55362,87.844902 180.2294,105.716 l -0.12891,0.0937 -0.8789,0 -0.0586,-0.0937 10.30079,-17.882817 0.1289,-0.09375 0.90235,0 z m -14.90625,4.957031 c 0,-0.718737 0.16601,-1.42772 0.49805,-2.126953 0.33203,-0.699204 0.85742,-1.279281 1.57617,-1.740234 0.71874,-0.460921 1.49999,-0.69139 2.34375,-0.691406 0.99218,1.6e-5 1.81249,0.324235 2.46094,0.972656 0.64842,0.648452 0.97264,1.449233 0.97265,2.402344 -1e-5,0.8047 -0.20313,1.576183 -0.60937,2.314453 -0.40626,0.738291 -0.96681,1.304697 -1.68164,1.699218 -0.71485,0.394541 -1.41212,0.591806 -2.0918,0.591797 -0.66407,9e-6 -1.27344,-0.173819 -1.82813,-0.521484 -0.55469,-0.347647 -0.96679,-0.789052 -1.23632,-1.324219 -0.26954,-0.535145 -0.4043,-1.060535 -0.4043,-1.576172 z m 1.72266,0.433594 c -1e-5,0.867198 0.17577,1.488292 0.52734,1.863281 0.35156,0.37501 0.7539,0.56251 1.20703,0.5625 0.77343,10e-6 1.41601,-0.490224 1.92774,-1.470703 0.51171,-0.980457 0.76757,-2.03319 0.76757,-3.158203 0,-0.664048 -0.14258,-1.201157 -0.42773,-1.611328 -0.28516,-0.41014 -0.68946,-0.615218 -1.21289,-0.615234 -0.36719,1.6e-5 -0.72071,0.103531 -1.06055,0.310546 -0.33985,0.207047 -0.65039,0.550797 -0.93164,1.03125 -0.28125,0.480484 -0.48438,1.011733 -0.60937,1.59375 -0.12501,0.582044 -0.18751,1.080091 -0.1875,1.494141 z m 9,8.730473 c -2e-5,-0.74219 0.17576,-1.4668 0.52734,-2.173832 0.35155,-0.707026 0.88475,-1.281244 1.59961,-1.722657 0.71483,-0.441398 1.4785,-0.662101 2.29101,-0.662109 0.96874,8e-6 1.78319,0.316414 2.44336,0.949219 0.66014,0.632818 0.99022,1.45313 0.99024,2.460939 -2e-5,0.78125 -0.20315,1.54102 -0.60938,2.2793 -0.40627,0.73828 -0.96486,1.30468 -1.67578,1.69921 -0.71095,0.39453 -1.40626,0.5918 -2.08594,0.5918 -0.6797,0 -1.29884,-0.17578 -1.85742,-0.52734 -0.5586,-0.35156 -0.96876,-0.79492 -1.23047,-1.33008 -0.26173,-0.53516 -0.39259,-1.05664 -0.39257,-1.56445 z m 1.73437,0.44531 c -1e-5,0.85156 0.17186,1.46875 0.51563,1.85156 0.34373,0.38281 0.74998,0.57422 1.21875,0.57422 0.33592,0 0.65037,-0.10156 0.94336,-0.30469 0.29295,-0.20312 0.57224,-0.50586 0.83789,-0.9082 0.2656,-0.40234 0.4824,-0.92969 0.65039,-1.58203 0.16795,-0.65234 0.25193,-1.26758 0.25195,-1.84571 -2e-5,-0.664052 -0.1426,-1.201161 -0.42773,-1.611324 -0.28518,-0.410149 -0.68948,-0.615227 -1.2129,-0.615234 -0.39064,7e-6 -0.75782,0.111335 -1.10156,0.333984 -0.34376,0.222663 -0.6465,0.570319 -0.9082,1.042969 -0.26173,0.472662 -0.45509,0.986335 -0.58008,1.541015 -0.12501,0.55469 -0.18751,1.0625 -0.1875,1.52344 z" />
        </g>
        <g
           id="text3151"
           style="font-size:24px;font-style:italic;font-variant:normal;font-weight:normal;font-stretch:normal;text-align:start;line-height:125%;letter-spacing:0px;word-spacing:0px;writing-mode:lr-tb;text-anchor:start;fill:#000000;fill-opacity:1;stroke:none;font-family:Palatino Linotype;-inkscape-font-specification:Palatino Linotype Italic">
          <path
             inkscape:connector-curvature="0"
             id="path3104"
             d="m 291.09268,102.49334 0.12891,0.32812 -0.0352,0.14063 c -0.94532,0.78906 -1.81446,1.39648 -2.60742,1.82227 -0.79297,0.42578 -1.55274,0.63867 -2.2793,0.63867 -0.96094,0 -1.6875,-0.29883 -2.17968,-0.89649 -0.49219,-0.59765 -0.73829,-1.48242 -0.73829,-2.65429 0,-0.71875 0.0859,-1.48242 0.25782,-2.29102 0.17187,-0.808587 0.40234,-1.513665 0.6914,-2.115234 0.28906,-0.601555 0.5918,-1.078117 0.90821,-1.429688 0.3164,-0.351553 0.79101,-0.726552 1.42382,-1.125 0.85156,-0.531239 1.51172,-0.878895 1.98047,-1.042968 0.46875,-0.164052 0.91796,-0.246083 1.34766,-0.246094 0.76562,1.1e-5 1.42577,0.191417 1.98047,0.574219 l 0.0351,0.152343 c -0.22657,0.929698 -0.39844,1.871103 -0.51562,2.824219 l -0.0937,0.09375 -0.36328,0 -0.0937,-0.09375 0,-0.785156 c 0.008,-0.156241 0.0117,-0.289054 0.0117,-0.398438 -10e-6,-0.257803 -0.0469,-0.457021 -0.14063,-0.597656 -0.0938,-0.140615 -0.31251,-0.269521 -0.65625,-0.386719 -0.34376,-0.117177 -0.73047,-0.175771 -1.16015,-0.175781 -0.82032,10e-6 -1.47462,0.212901 -1.96289,0.638672 -0.48829,0.42579 -0.92579,1.277352 -1.3125,2.554687 -0.38673,1.27735 -0.58009,2.404304 -0.58008,3.380864 -10e-6,0.97656 0.1914,1.68554 0.57422,2.12695 0.3828,0.44141 0.87499,0.66211 1.47656,0.66211 0.49218,0 1.00781,-0.11328 1.54687,-0.33985 0.53906,-0.22656 1.28515,-0.6914 2.23828,-1.39453 z" />
          <path
             inkscape:connector-curvature="0"
             id="path3106"
             d="m 302.17862,102.72771 0.082,0.31641 -0.0469,0.14063 c -1.64064,1.41406 -2.75782,2.12109 -3.35157,2.12109 -0.39063,0 -0.58594,-0.25 -0.58593,-0.75 -1e-5,-0.24219 0.0254,-0.54883 0.0762,-0.91992 0.0508,-0.37109 0.12694,-0.7793 0.22851,-1.22461 l 0.29297,-1.25391 0.17578,-0.6914 -0.0703,-0.0352 c -1.16407,1.65625 -2.25196,2.89844 -3.26367,3.72656 -1.01172,0.82813 -1.72071,1.24219 -2.12695,1.24219 -0.54688,0 -0.82032,-0.66797 -0.82032,-2.00391 0,-0.83593 0.12696,-1.78515 0.38086,-2.84765 0.25391,-1.062497 0.56445,-2.046871 0.93164,-2.953128 0.36719,-0.906242 0.66211,-1.501944 0.88477,-1.787109 0.22265,-0.285147 0.59375,-0.611319 1.11328,-0.978516 0.51953,-0.367177 1.00585,-0.648427 1.45898,-0.84375 0.45312,-0.195301 0.95703,-0.292957 1.51172,-0.292969 0.67968,1.2e-5 1.40234,0.140636 2.16797,0.421875 l 0.75,-0.445312 0.25781,0.210937 c -0.0234,0.117199 -0.18751,0.703136 -0.49218,1.757813 l -0.53907,1.992187 -0.29296,1.160157 c -0.21095,0.82813 -0.40626,1.693365 -0.58594,2.595705 -0.1797,0.90234 -0.26954,1.51758 -0.26953,1.8457 -1e-5,0.3125 0.10546,0.46875 0.3164,0.46875 0.13281,0 0.30859,-0.0586 0.52735,-0.17578 0.21874,-0.11719 0.61327,-0.39453 1.18359,-0.83203 z m -1.98047,-7.464839 c -0.59376,-0.273428 -1.23438,-0.410146 -1.92187,-0.410156 -0.57032,1e-5 -1.07813,0.105478 -1.52344,0.316406 -0.16407,0.12501 -0.33204,0.345712 -0.50391,0.662109 -0.17188,0.316415 -0.41406,0.906258 -0.72656,1.769531 -0.3125,0.863288 -0.56641,1.785162 -0.76172,2.765629 -0.19531,0.98047 -0.29297,1.75976 -0.29297,2.33789 0,0.42969 0.0371,0.70703 0.11133,0.83203 0.0742,0.125 0.18554,0.1875 0.33398,0.1875 0.28125,0 0.83203,-0.37891 1.65235,-1.13672 0.82031,-0.75781 1.51366,-1.63672 2.08008,-2.636719 0.5664,-0.999994 1.03319,-2.33593 1.40039,-4.007813 z" />
          <path
             inkscape:connector-curvature="0"
             id="path3108"
             d="m 304.21768,103.9699 c 0,-0.42968 0.13672,-0.80078 0.41016,-1.11328 0.27343,-0.3125 0.60156,-0.46875 0.98437,-0.46875 0.35938,0 0.63086,0.10352 0.81446,0.31055 0.18359,0.20703 0.27538,0.48242 0.27539,0.82617 -1e-5,0.45313 -0.12891,0.85156 -0.38672,1.19531 -0.25782,0.34375 -0.59766,0.51563 -1.01953,0.51563 -0.33594,0 -0.59961,-0.11719 -0.79102,-0.35157 -0.19141,-0.23437 -0.28711,-0.53906 -0.28711,-0.91406 z" />
          <path
             inkscape:connector-curvature="0"
             id="path3110"
             d="m 315.04581,104.36834 0.63281,-3.25781 0.11719,-0.0937 0.38672,0.0586 0.0703,0.11719 c -0.0547,0.40625 -0.082,0.7461 -0.082,1.01953 0,0.74219 0.27148,1.33008 0.81445,1.76367 0.54297,0.4336 1.22461,0.65039 2.04492,0.65039 0.85156,0 1.59179,-0.23633 2.22071,-0.70898 0.62889,-0.47266 1.09374,-1.10742 1.39453,-1.9043 0.30077,-0.79687 0.45116,-1.58203 0.45117,-2.355468 -10e-6,-0.593744 -0.12892,-1.130853 -0.38672,-1.611328 -0.25782,-0.480461 -0.64063,-0.841789 -1.14844,-1.083984 -0.50782,-0.24218 -1.0625,-0.363273 -1.66406,-0.363282 -0.46876,9e-6 -1.10157,0.09766 -1.89844,0.292969 l -0.0937,-0.09375 0.39844,-1.113281 c 0.61718,0.03907 0.99609,0.0586 1.13672,0.05859 0.58593,9e-6 1.16991,-0.146475 1.75195,-0.439454 0.58203,-0.292958 1.03906,-0.714833 1.3711,-1.265625 0.33202,-0.550769 0.49803,-1.134753 0.49804,-1.751953 -1e-5,-0.632799 -0.19922,-1.156236 -0.59765,-1.570312 -0.39845,-0.414048 -0.96485,-0.621079 -1.69922,-0.621094 -0.6797,1.5e-5 -1.22462,0.13478 -1.63477,0.404297 -0.41016,0.269545 -0.89258,0.763686 -1.44726,1.482422 l -0.12891,0.02344 -0.29297,-0.199218 -0.0234,-0.140625 1.35938,-2.273438 c 0.81249,-0.484359 1.74218,-0.726546 2.78906,-0.726562 1.10156,1.6e-5 1.96874,0.289078 2.60156,0.867187 0.63281,0.57814 0.94921,1.328139 0.94922,2.25 -10e-6,0.7422 -0.22071,1.435559 -0.66211,2.080078 -0.44141,0.644542 -1.34571,1.310557 -2.71289,1.998047 l 0,0.05859 c 1.03906,0.148446 1.89452,0.517587 2.56641,1.107422 0.67186,0.589851 1.0078,1.451178 1.00781,2.583984 -1e-5,1.015628 -0.27149,1.966798 -0.81445,2.853508 -0.54298,0.88672 -1.34181,1.60743 -2.39649,2.16211 -1.05469,0.55469 -2.1836,0.83203 -3.38672,0.83203 -1.25781,0 -2.42187,-0.36328 -3.49218,-1.08984 z" />
          <path
             inkscape:connector-curvature="0"
             id="path3112"
             d="m 331.90909,96.821465 c -0.82813,-0.421867 -1.42969,-0.892569 -1.80469,-1.41211 -0.375,-0.519521 -0.5625,-1.130848 -0.5625,-1.833984 0,-1.249988 0.55859,-2.378893 1.67578,-3.386719 1.11718,-1.007797 2.32031,-1.511702 3.60938,-1.511719 0.95311,1.7e-5 1.70507,0.275407 2.25586,0.826172 0.55077,0.550796 0.82616,1.244155 0.82617,2.080078 -10e-6,0.820325 -0.24025,1.58009 -0.7207,2.279297 -0.48048,0.699229 -1.42775,1.486338 -2.8418,2.361328 1.0078,0.484384 1.70116,1.001961 2.08008,1.552735 0.37889,0.550788 0.56835,1.236334 0.56836,2.05664 -10e-6,0.742197 -0.13087,1.462897 -0.39258,2.162107 -0.26173,0.69922 -0.66798,1.30274 -1.21875,1.81055 -0.55079,0.50781 -1.18556,0.9043 -1.9043,1.18945 -0.71876,0.28516 -1.44532,0.42774 -2.17969,0.42774 -0.67969,0 -1.30273,-0.11914 -1.86914,-0.35742 -0.56641,-0.23829 -1.01367,-0.63672 -1.34179,-1.19532 -0.32813,-0.55859 -0.49219,-1.17382 -0.49219,-1.8457 0,-0.97656 0.33008,-1.89453 0.99023,-2.753907 0.66016,-0.859368 1.76758,-1.675774 3.32227,-2.449218 z m 1.75781,-0.949219 c 0.49218,-0.304678 0.93163,-0.642569 1.31836,-1.013672 0.38671,-0.371083 0.70312,-0.818348 0.94922,-1.341797 0.24608,-0.523425 0.36913,-1.027331 0.36914,-1.511719 -1e-5,-0.718736 -0.21485,-1.287095 -0.64453,-1.705078 -0.4297,-0.417953 -0.98438,-0.626938 -1.66406,-0.626953 -0.4922,1.5e-5 -0.96485,0.128922 -1.41797,0.386719 -0.45313,0.257827 -0.81251,0.619155 -1.07813,1.083984 -0.26563,0.464857 -0.39844,0.994154 -0.39844,1.587891 0,0.734386 0.20703,1.333995 0.6211,1.798828 0.41406,0.464854 1.06249,0.912119 1.94531,1.341797 z m -1.08984,1.324219 c -0.97657,0.421882 -1.76368,1.035163 -2.36133,1.839843 -0.59766,0.804693 -0.89649,1.675782 -0.89649,2.613282 0,0.85156 0.24805,1.5293 0.74415,2.0332 0.49609,0.50391 1.12694,0.75586 1.89257,0.75586 0.98437,0 1.77343,-0.38281 2.36719,-1.14844 0.59374,-0.76562 0.89062,-1.66405 0.89063,-2.69531 -10e-6,-0.734368 -0.18361,-1.349602 -0.55079,-1.845701 -0.36719,-0.496087 -1.0625,-1.013665 -2.08593,-1.552734 z" />
          <path
             inkscape:connector-curvature="0"
             id="path3114"
             d="m 338.61221,108.5285 -0.1875,-0.22266 c 0.35938,-0.39844 0.75586,-1.05664 1.18946,-1.97461 0.43359,-0.91797 0.7871,-2.06445 1.06054,-3.43945 0.98438,-0.24219 1.71094,-0.47266 2.17969,-0.69141 l 0.23438,0.31641 c -0.33595,0.79687 -0.89063,1.80469 -1.66407,3.02343 -0.77344,1.21875 -1.4414,2.11328 -2.0039,2.6836 z" />
          <path
             inkscape:connector-curvature="0"
             id="path3116"
             d="m 345.11612,105.11834 -0.082,-0.0937 0.0234,-0.36328 c 3.36718,-3.5 5.55468,-6.037105 6.5625,-7.61133 1.0078,-1.574209 1.51171,-2.994129 1.51171,-4.259765 0,-0.429675 -0.0977,-0.859362 -0.29296,-1.289063 -0.19532,-0.429674 -0.51368,-0.755845 -0.95508,-0.978516 -0.44142,-0.222641 -0.90431,-0.333969 -1.38867,-0.333984 -1.3672,1.5e-5 -2.4961,0.808608 -3.38672,2.425781 l -0.12891,0.04687 -0.33984,-0.140625 -0.0469,-0.140625 1.39453,-2.695312 c 0.9375,-0.679672 1.99219,-1.019515 3.16407,-1.019531 1.14843,1.6e-5 2.10155,0.330094 2.85937,0.990234 0.7578,0.660171 1.13671,1.572279 1.13672,2.736328 -10e-6,0.757824 -0.1465,1.492199 -0.43945,2.203125 -0.29298,0.710947 -0.75001,1.460947 -1.3711,2.25 -0.6211,0.78907 -1.70508,1.976569 -3.25195,3.562503 l -1.6875,1.7461 c -0.65625,0.71875 -1.02735,1.11719 -1.11328,1.19531 l 0.0469,0.15234 4.6875,0 c 1.14843,0 2.10156,-0.0703 2.85938,-0.21094 l 0.15234,0.16407 -0.38672,1.57031 -0.10547,0.0937 c -1.75,-0.0859 -3.27344,-0.12891 -4.57031,-0.12891 l -3.03515,0.0703 c -0.90626,0.0156 -1.51172,0.0352 -1.81641,0.0586 z" />
          <path
             inkscape:connector-curvature="0"
             id="path3118"
             d="M 379.05362,87.844902 368.7294,105.716 l -0.12891,0.0937 -0.8789,0 -0.0586,-0.0937 10.30079,-17.882817 0.1289,-0.09375 0.90235,0 z m -14.90625,4.957031 c 0,-0.718737 0.16601,-1.42772 0.49805,-2.126953 0.33203,-0.699204 0.85742,-1.279281 1.57617,-1.740234 0.71874,-0.460921 1.49999,-0.69139 2.34375,-0.691406 0.99218,1.6e-5 1.81249,0.324235 2.46094,0.972656 0.64842,0.648452 0.97264,1.449233 0.97265,2.402344 -10e-6,0.8047 -0.20313,1.576183 -0.60937,2.314453 -0.40626,0.738291 -0.96681,1.304697 -1.68164,1.699218 -0.71485,0.394541 -1.41212,0.591806 -2.0918,0.591797 -0.66407,9e-6 -1.27344,-0.173819 -1.82813,-0.521484 -0.55469,-0.347647 -0.96679,-0.789052 -1.23632,-1.324219 -0.26954,-0.535145 -0.4043,-1.060535 -0.4043,-1.576172 z m 1.72266,0.433594 c -10e-6,0.867198 0.17577,1.488292 0.52734,1.863281 0.35156,0.37501 0.7539,0.56251 1.20703,0.5625 0.77343,10e-6 1.41601,-0.490224 1.92774,-1.470703 0.51171,-0.980457 0.76757,-2.03319 0.76757,-3.158203 0,-0.664048 -0.14258,-1.201157 -0.42773,-1.611328 -0.28516,-0.41014 -0.68946,-0.615218 -1.21289,-0.615234 -0.36719,1.6e-5 -0.72071,0.103531 -1.06055,0.310546 -0.33985,0.207047 -0.65039,0.550797 -0.93164,1.03125 -0.28125,0.480484 -0.48438,1.011733 -0.60937,1.59375 -0.12501,0.582044 -0.18751,1.080091 -0.1875,1.494141 z m 9,8.730473 c -2e-5,-0.74219 0.17576,-1.4668 0.52734,-2.173832 0.35155,-0.707026 0.88475,-1.281244 1.59961,-1.722657 0.71483,-0.441398 1.4785,-0.662101 2.29101,-0.662109 0.96874,8e-6 1.78319,0.316414 2.44336,0.949219 0.66014,0.632818 0.99022,1.45313 0.99024,2.460939 -2e-5,0.78125 -0.20315,1.54102 -0.60938,2.2793 -0.40627,0.73828 -0.96486,1.30468 -1.67578,1.69921 -0.71095,0.39453 -1.40626,0.5918 -2.08594,0.5918 -0.6797,0 -1.29884,-0.17578 -1.85742,-0.52734 -0.5586,-0.35156 -0.96876,-0.79492 -1.23047,-1.33008 -0.26173,-0.53516 -0.39259,-1.05664 -0.39257,-1.56445 z m 1.73437,0.44531 c -10e-6,0.85156 0.17186,1.46875 0.51563,1.85156 0.34373,0.38281 0.74998,0.57422 1.21875,0.57422 0.33592,0 0.65037,-0.10156 0.94336,-0.30469 0.29295,-0.20312 0.57224,-0.50586 0.83789,-0.9082 0.2656,-0.40234 0.4824,-0.92969 0.65039,-1.58203 0.16795,-0.65234 0.25193,-1.26758 0.25195,-1.84571 -2e-5,-0.664052 -0.1426,-1.201161 -0.42773,-1.611324 -0.28518,-0.410149 -0.68948,-0.615227 -1.2129,-0.615234 -0.39064,7e-6 -0.75782,0.111335 -1.10156,0.333984 -0.34376,0.222663 -0.6465,0.570319 -0.9082,1.042969 -0.26173,0.472662 -0.45509,0.986335 -0.58008,1.541015 -0.12501,0.55469 -0.18751,1.0625 -0.1875,1.52344 z" />
        </g>
      </g>
    </g>
  </g>
</svg>
